<svg xmlns="http://www.w3.org/2000/svg" xmlns:xlink="http://www.w3.org/1999/xlink" width="500" zoomAndPan="magnify" viewBox="0 0 375 374.999991" height="500" preserveAspectRatio="xMidYMid meet" version="1.0"><defs><g/><clipPath id="a48611aef2"><path d="M 267 45 L 358 45 L 358 137 L 267 137 Z M 267 45 " clip-rule="nonzero"/></clipPath><clipPath id="d21dd3ca07"><path d="M 293.882812 26.511719 L 374.515625 65.476562 L 333.117188 151.148438 L 252.484375 112.183594 Z M 293.882812 26.511719 " clip-rule="nonzero"/></clipPath><clipPath id="c050344284"><path d="M 293.882812 26.511719 L 374.515625 65.476562 L 333.117188 151.148438 L 252.484375 112.183594 Z M 293.882812 26.511719 " clip-rule="nonzero"/></clipPath><clipPath id="f4c1814a8f"><path d="M 293.90625 26.523438 L 374.914062 65.667969 L 333.28125 151.820312 L 252.273438 112.675781 Z M 293.90625 26.523438 " clip-rule="nonzero"/></clipPath><clipPath id="def36e033a"><path d="M 293.90625 26.523438 L 374.519531 65.476562 L 333.109375 151.171875 L 252.496094 112.21875 Z M 293.90625 26.523438 " clip-rule="nonzero"/></clipPath><clipPath id="e7a989e037"><path d="M 305.152344 83.195312 L 317.746094 83.195312 L 317.746094 98.585938 L 305.152344 98.585938 Z M 305.152344 83.195312 " clip-rule="nonzero"/></clipPath><clipPath id="ea7d685eed"><path d="M 305.152344 91 L 312 91 L 312 98 L 305.152344 98 Z M 305.152344 91 " clip-rule="nonzero"/></clipPath><clipPath id="1e951a560f"><path d="M 305.152344 84 L 312 84 L 312 92 L 305.152344 92 Z M 305.152344 84 " clip-rule="nonzero"/></clipPath><clipPath id="c947fc8145"><path d="M 311 91 L 317.746094 91 L 317.746094 98 L 311 98 Z M 311 91 " clip-rule="nonzero"/></clipPath><clipPath id="cde34d9462"><path d="M 311 84 L 317.746094 84 L 317.746094 92 L 311 92 Z M 311 84 " clip-rule="nonzero"/></clipPath><clipPath id="a3959aa399"><path d="M 305.152344 84 L 317.746094 84 L 317.746094 98 L 305.152344 98 Z M 305.152344 84 " clip-rule="nonzero"/></clipPath><clipPath id="f161f48110"><path d="M 305.152344 83.195312 L 317.746094 83.195312 L 317.746094 98.585938 L 305.152344 98.585938 Z M 305.152344 83.195312 " clip-rule="nonzero"/></clipPath></defs><g fill="#000000" fill-opacity="1"><g transform="translate(80.23858, 274.911747)"><g><path d="M 199.429688 0 L 268.121094 -163.339844 C 278.25 -186.449219 272.871094 -211.457031 248.496094 -220.953125 C 222.855469 -231.085938 196.578125 -216.207031 184.234375 -185.183594 L 164.925781 -140.550781 L 130.421875 -223.804688 L 103.828125 -223.804688 L 151.628906 -108.894531 L 119.339844 -31.65625 L 38.621094 -223.804688 L 11.078125 -223.804688 L 105.730469 0 L 108.578125 0 L 152.578125 -106.046875 L 197.210938 0 Z M 166.824219 -137.066406 L 186.449219 -185.183594 C 197.210938 -210.191406 220.320312 -229.183594 247.863281 -219.054688 C 271.285156 -209.875 275.402344 -185.183594 266.539062 -163.339844 L 210.824219 -31.65625 Z M 166.824219 -137.066406 "/></g></g></g><g clip-path="url(#a48611aef2)"><g clip-path="url(#d21dd3ca07)"><g clip-path="url(#c050344284)"><g clip-path="url(#f4c1814a8f)"><g clip-path="url(#def36e033a)"><path fill="#365b9d" d="M 316.308594 93.136719 C 315.246094 95.332031 312.621094 96.25 310.4375 95.195312 C 309.644531 94.8125 309.027344 94.21875 308.601562 93.515625 L 300.25 94.761719 C 299.289062 94.90625 298.398438 94.242188 298.257812 93.28125 C 298.117188 92.320312 298.78125 91.421875 299.742188 91.277344 L 308.148438 90.023438 C 308.214844 89.785156 308.292969 89.546875 308.402344 89.316406 C 309.1875 87.695312 310.839844 86.769531 312.53125 86.832031 L 322.660156 65.867188 C 323.085938 64.992188 324.136719 64.621094 325.007812 65.042969 C 325.878906 65.464844 326.246094 66.519531 325.820312 67.394531 L 315.691406 88.359375 C 316.789062 89.644531 317.09375 91.511719 316.308594 93.136719 Z M 295.867188 125.347656 C 277.101562 116.277344 269.265625 93.648438 278.371094 74.804688 C 287.476562 55.964844 310.074219 48.042969 328.84375 57.109375 C 347.609375 66.179688 355.445312 88.808594 346.339844 107.648438 C 337.234375 126.492188 314.636719 134.417969 295.867188 125.347656 Z M 336.273438 53.1875 C 337.175781 52.980469 337.875 52.539062 338.207031 51.847656 C 339.054688 50.09375 337.265625 47.480469 334.210938 46.003906 C 331.15625 44.527344 327.992188 44.75 327.144531 46.5 C 326.8125 47.191406 326.898438 48.011719 327.296875 48.847656 C 306.066406 41.355469 282.113281 50.929688 272.050781 71.75 C 261.25 94.101562 270.542969 120.9375 292.800781 131.695312 C 315.0625 142.453125 341.859375 133.054688 352.660156 110.703125 C 362.722656 89.882812 355.335938 65.164062 336.273438 53.1875 " fill-opacity="1" fill-rule="nonzero"/><path fill="#000000" d="M 316.308594 93.136719 C 315.246094 95.332031 312.621094 96.25 310.4375 95.195312 C 309.644531 94.8125 309.027344 94.21875 308.601562 93.515625 L 300.25 94.761719 C 299.289062 94.90625 298.398438 94.242188 298.257812 93.28125 C 298.117188 92.320312 298.78125 91.421875 299.742188 91.277344 L 308.148438 90.023438 C 308.214844 89.785156 308.292969 89.546875 308.402344 89.316406 C 309.1875 87.695312 310.839844 86.769531 312.53125 86.832031 L 322.660156 65.867188 C 323.085938 64.992188 324.136719 64.621094 325.007812 65.042969 C 325.878906 65.464844 326.246094 66.519531 325.820312 67.394531 L 315.691406 88.359375 C 316.789062 89.644531 317.09375 91.511719 316.308594 93.136719 Z M 295.867188 125.347656 C 277.101562 116.277344 269.265625 93.648438 278.371094 74.804688 C 287.476562 55.964844 310.074219 48.042969 328.84375 57.109375 C 347.609375 66.179688 355.445312 88.808594 346.339844 107.648438 C 337.234375 126.492188 314.636719 134.417969 295.867188 125.347656 Z M 336.273438 53.1875 C 337.175781 52.980469 337.875 52.539062 338.207031 51.847656 C 339.054688 50.09375 337.265625 47.480469 334.210938 46.003906 C 331.15625 44.527344 327.992188 44.75 327.144531 46.5 C 326.8125 47.191406 326.898438 48.011719 327.296875 48.847656 C 306.066406 41.355469 282.113281 50.929688 272.050781 71.75 C 261.25 94.101562 270.542969 120.9375 292.800781 131.695312 C 315.0625 142.453125 341.859375 133.054688 352.660156 110.703125 C 362.722656 89.882812 355.335938 65.164062 336.273438 53.1875 " fill-opacity="1" fill-rule="nonzero"/></g></g></g></g></g><g clip-path="url(#e7a989e037)"><path fill="#ffffff" d="M 317.417969 85.984375 C 313.660156 85.984375 311.953125 83.9375 311.648438 83.53125 L 311.449219 83.257812 L 311.25 83.53125 C 310.945312 83.9375 309.238281 85.984375 305.480469 85.984375 L 305.230469 85.984375 L 305.230469 91.953125 C 305.546875 93.84375 306.917969 96.429688 311.34375 98.472656 L 311.449219 98.523438 L 311.554688 98.472656 C 315.980469 96.429688 317.351562 93.84375 317.667969 91.953125 L 317.667969 85.984375 L 317.417969 85.984375 " fill-opacity="1" fill-rule="nonzero"/><path fill="#231f20" d="M 317.417969 85.984375 L 317.417969 85.921875 C 315.550781 85.921875 314.199219 85.414062 313.273438 84.855469 C 312.347656 84.300781 311.847656 83.691406 311.699219 83.492188 L 311.5 83.222656 C 311.488281 83.207031 311.46875 83.195312 311.449219 83.195312 C 311.429688 83.195312 311.410156 83.207031 311.398438 83.222656 L 311.199219 83.492188 C 311.050781 83.691406 310.554688 84.300781 309.628906 84.855469 C 308.703125 85.414062 307.347656 85.921875 305.480469 85.921875 L 305.230469 85.921875 C 305.214844 85.921875 305.199219 85.929688 305.1875 85.941406 C 305.175781 85.949219 305.167969 85.96875 305.167969 85.984375 L 305.167969 91.964844 C 305.328125 92.917969 305.753906 94.046875 306.699219 95.195312 C 307.640625 96.34375 309.097656 97.503906 311.316406 98.53125 L 311.421875 98.578125 C 311.441406 98.585938 311.460938 98.585938 311.476562 98.578125 L 311.582031 98.53125 C 313.800781 97.503906 315.257812 96.34375 316.203125 95.195312 C 317.144531 94.046875 317.570312 92.917969 317.730469 91.964844 L 317.730469 85.984375 C 317.730469 85.96875 317.726562 85.949219 317.714844 85.941406 C 317.703125 85.929688 317.683594 85.921875 317.667969 85.921875 L 317.417969 85.921875 L 317.417969 86.046875 L 317.605469 86.046875 L 317.605469 91.953125 L 317.667969 91.953125 L 317.605469 91.941406 C 317.449219 92.878906 317.03125 93.984375 316.105469 95.117188 C 315.175781 96.246094 313.734375 97.398438 311.527344 98.417969 L 311.449219 98.453125 L 311.371094 98.417969 C 309.164062 97.398438 307.722656 96.246094 306.796875 95.117188 C 305.867188 93.984375 305.449219 92.878906 305.292969 91.941406 L 305.230469 91.953125 L 305.292969 91.953125 L 305.292969 86.046875 L 305.480469 86.046875 C 307.371094 86.046875 308.75 85.53125 309.691406 84.964844 C 310.636719 84.394531 311.144531 83.777344 311.300781 83.566406 L 311.449219 83.363281 L 311.597656 83.566406 C 311.753906 83.777344 312.261719 84.394531 313.207031 84.964844 C 314.148438 85.53125 315.527344 86.046875 317.417969 86.046875 L 317.417969 85.984375 " fill-opacity="1" fill-rule="nonzero"/></g><g clip-path="url(#ea7d685eed)"><path fill="#ffffff" d="M 305.792969 91.777344 L 305.792969 91.949219 C 306.078125 93.667969 307.332031 96.023438 311.359375 97.886719 L 311.449219 97.925781 L 311.449219 91.777344 L 305.792969 91.777344 " fill-opacity="1" fill-rule="nonzero"/><path fill="#231f20" d="M 305.792969 91.777344 L 305.730469 91.777344 L 305.730469 91.957031 C 305.875 92.828125 306.265625 93.859375 307.125 94.902344 C 307.984375 95.949219 309.3125 97.007812 311.332031 97.941406 L 311.421875 97.984375 C 311.441406 97.992188 311.464844 97.992188 311.484375 97.980469 C 311.5 97.96875 311.511719 97.949219 311.511719 97.925781 L 311.511719 91.777344 C 311.511719 91.761719 311.507812 91.746094 311.496094 91.734375 C 311.480469 91.722656 311.464844 91.714844 311.449219 91.714844 L 305.792969 91.714844 C 305.777344 91.714844 305.761719 91.722656 305.75 91.734375 C 305.738281 91.746094 305.730469 91.761719 305.730469 91.777344 L 305.792969 91.777344 L 305.792969 91.839844 L 311.386719 91.839844 L 311.386719 97.828125 C 309.378906 96.902344 308.066406 95.851562 307.222656 94.824219 C 306.375 93.796875 305.996094 92.789062 305.855469 91.9375 L 305.792969 91.949219 L 305.855469 91.949219 L 305.855469 91.777344 L 305.792969 91.777344 L 305.792969 91.839844 L 305.792969 91.777344 " fill-opacity="1" fill-rule="nonzero"/></g><g clip-path="url(#1e951a560f)"><path fill="#231f20" d="M 311.449219 91.777344 L 311.449219 84.160156 L 311.269531 84.414062 C 310.988281 84.8125 309.410156 86.625 305.9375 86.625 L 305.757812 86.625 L 305.757812 91.777344 L 311.449219 91.777344 " fill-opacity="1" fill-rule="nonzero"/><path fill="#231f20" d="M 311.449219 91.777344 L 311.511719 91.777344 L 311.511719 84.160156 C 311.511719 84.132812 311.496094 84.109375 311.46875 84.101562 C 311.441406 84.09375 311.414062 84.101562 311.398438 84.125 L 311.21875 84.378906 C 311.152344 84.472656 311 84.660156 310.761719 84.882812 C 310.40625 85.214844 309.847656 85.636719 309.050781 85.972656 C 308.257812 86.308594 307.230469 86.5625 305.9375 86.5625 L 305.757812 86.5625 C 305.742188 86.5625 305.726562 86.570312 305.714844 86.582031 C 305.703125 86.59375 305.695312 86.609375 305.695312 86.625 L 305.695312 91.777344 C 305.695312 91.796875 305.703125 91.8125 305.714844 91.824219 C 305.726562 91.835938 305.742188 91.839844 305.757812 91.839844 L 311.449219 91.839844 C 311.464844 91.839844 311.480469 91.835938 311.496094 91.824219 C 311.507812 91.8125 311.511719 91.796875 311.511719 91.777344 L 311.449219 91.777344 L 311.449219 91.714844 L 305.824219 91.714844 L 305.824219 86.6875 L 305.9375 86.6875 C 307.683594 86.6875 308.960938 86.230469 309.832031 85.722656 C 310.269531 85.46875 310.605469 85.203125 310.851562 84.972656 C 311.09375 84.746094 311.25 84.554688 311.320312 84.449219 L 311.386719 84.359375 L 311.386719 91.777344 L 311.449219 91.777344 L 311.449219 91.714844 L 311.449219 91.777344 " fill-opacity="1" fill-rule="nonzero"/></g><g clip-path="url(#c947fc8145)"><path fill="#231f20" d="M 317.105469 91.777344 L 317.105469 91.949219 C 316.820312 93.667969 315.570312 96.023438 311.539062 97.886719 L 311.449219 97.925781 L 311.449219 91.777344 L 317.105469 91.777344 " fill-opacity="1" fill-rule="nonzero"/><path fill="#231f20" d="M 317.105469 91.777344 L 317.042969 91.777344 L 317.042969 91.949219 L 317.105469 91.949219 L 317.042969 91.9375 C 316.902344 92.789062 316.523438 93.796875 315.675781 94.824219 C 314.832031 95.851562 313.519531 96.902344 311.511719 97.828125 L 311.511719 91.839844 L 317.105469 91.839844 L 317.105469 91.777344 L 317.042969 91.777344 L 317.105469 91.777344 L 317.105469 91.714844 L 311.449219 91.714844 C 311.433594 91.714844 311.417969 91.722656 311.40625 91.734375 C 311.394531 91.746094 311.386719 91.761719 311.386719 91.777344 L 311.386719 97.925781 C 311.386719 97.949219 311.398438 97.96875 311.414062 97.980469 C 311.433594 97.992188 311.457031 97.992188 311.476562 97.984375 L 311.566406 97.941406 C 313.585938 97.007812 314.917969 95.949219 315.773438 94.902344 C 316.632812 93.859375 317.023438 92.828125 317.167969 91.957031 L 317.167969 91.777344 C 317.167969 91.761719 317.164062 91.746094 317.152344 91.734375 C 317.140625 91.722656 317.121094 91.714844 317.105469 91.714844 L 317.105469 91.777344 " fill-opacity="1" fill-rule="nonzero"/></g><g clip-path="url(#cde34d9462)"><path fill="#ffffff" d="M 311.449219 91.777344 L 311.449219 84.160156 L 311.628906 84.414062 C 311.910156 84.8125 313.488281 86.625 316.964844 86.625 L 317.140625 86.625 L 317.140625 91.777344 L 311.449219 91.777344 " fill-opacity="1" fill-rule="nonzero"/><path fill="#231f20" d="M 311.449219 91.777344 L 311.511719 91.777344 L 311.511719 84.359375 L 311.578125 84.449219 C 311.652344 84.554688 311.804688 84.746094 312.050781 84.972656 C 312.78125 85.660156 314.339844 86.6875 316.964844 86.6875 L 317.078125 86.6875 L 317.078125 91.714844 L 311.449219 91.714844 L 311.449219 91.777344 L 311.511719 91.777344 L 311.449219 91.777344 L 311.449219 91.839844 L 317.140625 91.839844 C 317.15625 91.839844 317.171875 91.835938 317.183594 91.824219 C 317.195312 91.8125 317.203125 91.796875 317.203125 91.777344 L 317.203125 86.625 C 317.203125 86.609375 317.195312 86.59375 317.183594 86.582031 C 317.171875 86.570312 317.15625 86.5625 317.140625 86.5625 L 316.964844 86.5625 C 315.234375 86.5625 313.984375 86.113281 313.128906 85.613281 C 312.703125 85.367188 312.375 85.105469 312.136719 84.882812 C 311.898438 84.660156 311.75 84.472656 311.679688 84.378906 L 311.5 84.125 C 311.484375 84.101562 311.457031 84.09375 311.429688 84.101562 C 311.40625 84.109375 311.386719 84.132812 311.386719 84.160156 L 311.386719 91.777344 C 311.386719 91.796875 311.394531 91.8125 311.40625 91.824219 C 311.417969 91.835938 311.433594 91.839844 311.449219 91.839844 L 311.449219 91.777344 " fill-opacity="1" fill-rule="nonzero"/></g><g clip-path="url(#a3959aa399)"><path fill="#231f20" d="M 305.847656 91.964844 C 306.125 93.589844 307.3125 95.910156 311.386719 97.761719 L 311.449219 97.789062 L 311.511719 97.761719 C 315.585938 95.910156 316.773438 93.589844 317.050781 91.964844 L 317.050781 86.679688 L 316.902344 86.679688 C 313.429688 86.679688 311.851562 84.816406 311.570312 84.441406 L 311.449219 84.285156 L 311.332031 84.441406 C 311.046875 84.816406 309.46875 86.679688 305.996094 86.679688 L 305.847656 86.679688 Z M 311.449219 97.957031 L 311.320312 97.898438 C 307.179688 96.015625 305.972656 93.640625 305.691406 91.980469 L 305.691406 86.53125 L 305.996094 86.53125 C 309.394531 86.53125 310.929688 84.71875 311.203125 84.355469 L 311.449219 84.027344 L 311.695312 84.355469 C 311.96875 84.71875 313.507812 86.53125 316.902344 86.53125 L 317.207031 86.53125 L 317.207031 91.980469 C 316.925781 93.640625 315.71875 96.015625 311.578125 97.898438 L 311.449219 97.957031 " fill-opacity="1" fill-rule="nonzero"/></g><g clip-path="url(#f161f48110)"><path fill="#231f20" d="M 305.847656 91.964844 L 305.785156 91.972656 C 305.925781 92.796875 306.296875 93.792969 307.144531 94.816406 C 307.992188 95.839844 309.316406 96.890625 311.359375 97.820312 L 311.421875 97.847656 C 311.441406 97.855469 311.460938 97.855469 311.476562 97.847656 L 311.539062 97.820312 C 313.582031 96.890625 314.90625 95.839844 315.753906 94.816406 C 316.601562 93.792969 316.972656 92.796875 317.113281 91.972656 L 317.113281 86.679688 C 317.113281 86.664062 317.109375 86.648438 317.097656 86.636719 C 317.085938 86.625 317.066406 86.617188 317.050781 86.617188 L 316.902344 86.617188 C 315.175781 86.617188 313.925781 86.15625 313.070312 85.648438 C 312.214844 85.140625 311.757812 84.585938 311.621094 84.40625 L 311.5 84.246094 C 311.488281 84.230469 311.46875 84.222656 311.449219 84.222656 C 311.429688 84.222656 311.410156 84.230469 311.398438 84.246094 L 311.28125 84.40625 C 311.140625 84.585938 310.683594 85.140625 309.828125 85.648438 C 308.972656 86.15625 307.722656 86.617188 305.996094 86.617188 L 305.847656 86.617188 C 305.832031 86.617188 305.816406 86.625 305.804688 86.636719 C 305.792969 86.648438 305.785156 86.664062 305.785156 86.679688 L 305.785156 91.972656 L 305.847656 91.964844 L 305.910156 91.964844 L 305.910156 86.742188 L 305.996094 86.742188 C 307.746094 86.742188 309.019531 86.273438 309.890625 85.753906 C 310.765625 85.238281 311.234375 84.671875 311.378906 84.480469 L 311.449219 84.390625 L 311.519531 84.480469 C 311.664062 84.671875 312.132812 85.238281 313.007812 85.753906 C 313.878906 86.273438 315.15625 86.742188 316.902344 86.742188 L 316.988281 86.742188 L 316.988281 91.964844 L 317.050781 91.964844 L 316.988281 91.953125 C 316.851562 92.753906 316.492188 93.730469 315.65625 94.738281 C 314.824219 95.746094 313.515625 96.78125 311.484375 97.707031 L 311.449219 97.722656 L 311.414062 97.707031 C 309.382812 96.78125 308.074219 95.746094 307.242188 94.738281 C 306.410156 93.730469 306.046875 92.753906 305.910156 91.953125 L 305.847656 91.964844 L 305.910156 91.964844 Z M 311.449219 97.957031 L 311.476562 97.898438 L 311.347656 97.839844 C 309.28125 96.902344 307.953125 95.84375 307.109375 94.816406 C 306.261719 93.789062 305.894531 92.792969 305.753906 91.972656 L 305.691406 91.980469 L 305.753906 91.976562 L 305.753906 86.59375 L 305.996094 86.59375 C 307.707031 86.59375 308.953125 86.136719 309.804688 85.632812 C 310.65625 85.128906 311.113281 84.578125 311.253906 84.390625 L 311.449219 84.132812 L 311.644531 84.390625 C 311.785156 84.578125 312.246094 85.128906 313.097656 85.632812 C 313.949219 86.136719 315.191406 86.59375 316.902344 86.59375 L 317.144531 86.59375 L 317.144531 91.980469 L 317.207031 91.980469 L 317.144531 91.972656 C 317.003906 92.792969 316.636719 93.789062 315.792969 94.816406 C 314.945312 95.84375 313.617188 96.902344 311.550781 97.839844 L 311.421875 97.898438 L 311.449219 97.957031 L 311.476562 97.898438 L 311.449219 97.957031 L 311.476562 98.015625 L 311.605469 97.957031 C 313.683594 97.011719 315.027344 95.941406 315.890625 94.898438 C 316.75 93.851562 317.125 92.832031 317.269531 91.992188 L 317.269531 86.53125 C 317.269531 86.511719 317.265625 86.496094 317.253906 86.484375 C 317.242188 86.472656 317.222656 86.464844 317.207031 86.464844 L 316.902344 86.464844 C 315.214844 86.464844 313.996094 86.015625 313.160156 85.523438 C 312.328125 85.03125 311.878906 84.492188 311.746094 84.316406 L 311.5 83.988281 C 311.488281 83.972656 311.46875 83.964844 311.449219 83.964844 C 311.429688 83.964844 311.410156 83.972656 311.398438 83.988281 L 311.152344 84.316406 C 311.019531 84.492188 310.574219 85.03125 309.738281 85.523438 C 308.90625 86.015625 307.683594 86.464844 305.996094 86.464844 L 305.691406 86.464844 C 305.675781 86.464844 305.660156 86.472656 305.648438 86.484375 C 305.632812 86.496094 305.628906 86.511719 305.628906 86.53125 L 305.628906 91.992188 C 305.773438 92.832031 306.148438 93.851562 307.011719 94.898438 C 307.871094 95.941406 309.214844 97.011719 311.292969 97.957031 L 311.421875 98.015625 C 311.441406 98.023438 311.460938 98.023438 311.476562 98.015625 L 311.449219 97.957031 " fill-opacity="1" fill-rule="nonzero"/></g><g fill="#000000" fill-opacity="1"><g transform="translate(106.583423, 322.274107)"><g><path d="M 0.75 -12.71875 L 1.078125 -12.71875 C 1.109375 -12.507812 1.191406 -12.382812 1.328125 -12.34375 C 1.472656 -12.3125 1.65625 -12.296875 1.875 -12.296875 L 9.8125 -12.296875 C 10.03125 -12.296875 10.207031 -12.3125 10.34375 -12.34375 C 10.488281 -12.382812 10.578125 -12.507812 10.609375 -12.71875 L 10.9375 -12.71875 L 10.9375 -9.796875 L 10.609375 -9.796875 C 10.578125 -10.015625 10.503906 -10.15625 10.390625 -10.21875 C 10.285156 -10.289062 10.09375 -10.328125 9.8125 -10.328125 L 7.015625 -10.328125 L 7.015625 -0.9375 C 7.015625 -0.726562 7.050781 -0.582031 7.125 -0.5 C 7.207031 -0.414062 7.359375 -0.359375 7.578125 -0.328125 L 7.578125 0 L 4.203125 0 L 4.203125 -0.328125 C 4.390625 -0.359375 4.515625 -0.421875 4.578125 -0.515625 C 4.640625 -0.609375 4.671875 -0.75 4.671875 -0.9375 L 4.671875 -10.328125 L 1.875 -10.328125 C 1.625 -10.328125 1.4375 -10.300781 1.3125 -10.25 C 1.1875 -10.195312 1.109375 -10.046875 1.078125 -9.796875 L 0.75 -9.796875 Z M 0.75 -12.71875 "/></g></g></g><g fill="#000000" fill-opacity="1"><g transform="translate(121.273138, 322.274107)"><g><path d="M 6.96875 -7.0625 C 8.320312 -7.0625 9 -7.609375 9 -8.703125 C 9 -9.222656 8.832031 -9.625 8.5 -9.90625 C 8.175781 -10.1875 7.664062 -10.328125 6.96875 -10.328125 L 4.28125 -10.328125 L 4.28125 -7.0625 Z M 7.265625 -12.296875 C 7.859375 -12.296875 8.40625 -12.21875 8.90625 -12.0625 C 9.40625 -11.914062 9.832031 -11.695312 10.1875 -11.40625 C 10.550781 -11.125 10.832031 -10.769531 11.03125 -10.34375 C 11.238281 -9.914062 11.34375 -9.425781 11.34375 -8.875 C 11.34375 -7.988281 11.125 -7.238281 10.6875 -6.625 C 10.25 -6.007812 9.585938 -5.601562 8.703125 -5.40625 L 10.421875 -2.03125 C 10.546875 -1.769531 10.65625 -1.539062 10.75 -1.34375 C 10.84375 -1.144531 10.914062 -1.007812 10.96875 -0.9375 C 11.070312 -0.71875 11.171875 -0.566406 11.265625 -0.484375 C 11.359375 -0.410156 11.476562 -0.359375 11.625 -0.328125 L 11.625 0 L 8.15625 0 L 8.15625 -0.328125 C 8.28125 -0.335938 8.390625 -0.363281 8.484375 -0.40625 C 8.578125 -0.445312 8.625 -0.519531 8.625 -0.625 C 8.625 -0.707031 8.601562 -0.796875 8.5625 -0.890625 C 8.53125 -0.984375 8.484375 -1.09375 8.421875 -1.21875 C 8.304688 -1.414062 7.632812 -2.707031 6.40625 -5.09375 L 4.28125 -5.09375 L 4.28125 -0.9375 C 4.28125 -0.726562 4.316406 -0.582031 4.390625 -0.5 C 4.472656 -0.414062 4.625 -0.359375 4.84375 -0.328125 L 4.84375 0 L 1.421875 0 L 1.421875 -0.328125 C 1.628906 -0.359375 1.765625 -0.414062 1.828125 -0.5 C 1.898438 -0.582031 1.9375 -0.726562 1.9375 -0.9375 L 1.9375 -11.359375 C 1.9375 -11.566406 1.894531 -11.710938 1.8125 -11.796875 C 1.738281 -11.878906 1.59375 -11.9375 1.375 -11.96875 L 1.375 -12.296875 Z M 7.265625 -12.296875 "/></g></g></g><g fill="#000000" fill-opacity="1"><g transform="translate(137.270438, 322.274107)"><g><path d="M 4.5625 -12.296875 L 4.5625 -11.96875 C 4.34375 -11.9375 4.191406 -11.878906 4.109375 -11.796875 C 4.035156 -11.710938 4 -11.566406 4 -11.359375 L 4 -4.421875 C 4 -3.640625 4.21875 -3.007812 4.65625 -2.53125 C 5.101562 -2.0625 5.753906 -1.828125 6.609375 -1.828125 C 7.472656 -1.828125 8.125 -2.054688 8.5625 -2.515625 C 9.007812 -2.984375 9.234375 -3.617188 9.234375 -4.421875 L 9.234375 -11.359375 C 9.234375 -11.566406 9.191406 -11.710938 9.109375 -11.796875 C 9.035156 -11.878906 8.890625 -11.9375 8.671875 -11.96875 L 8.671875 -12.296875 L 11.984375 -12.296875 L 11.984375 -11.96875 C 11.742188 -11.9375 11.582031 -11.878906 11.5 -11.796875 C 11.425781 -11.710938 11.390625 -11.566406 11.390625 -11.359375 L 11.390625 -4.515625 C 11.390625 -3.003906 10.988281 -1.847656 10.1875 -1.046875 C 9.394531 -0.253906 8.171875 0.140625 6.515625 0.140625 C 3.273438 0.140625 1.65625 -1.410156 1.65625 -4.515625 L 1.65625 -11.359375 C 1.65625 -11.566406 1.613281 -11.710938 1.53125 -11.796875 C 1.445312 -11.878906 1.269531 -11.9375 1 -11.96875 L 1 -12.296875 Z M 4.5625 -12.296875 "/></g></g></g><g fill="#000000" fill-opacity="1"><g transform="translate(153.267762, 322.274107)"><g><path d="M 5.640625 -12.4375 C 6.460938 -12.4375 7.132812 -12.351562 7.65625 -12.1875 C 8.175781 -12.019531 8.59375 -11.867188 8.90625 -11.734375 C 9.125 -11.640625 9.285156 -11.566406 9.390625 -11.515625 C 9.503906 -11.472656 9.597656 -11.453125 9.671875 -11.453125 C 9.796875 -11.453125 9.894531 -11.472656 9.96875 -11.515625 C 10.050781 -11.566406 10.132812 -11.640625 10.21875 -11.734375 L 10.40625 -11.640625 L 8.671875 -8.75 L 8.34375 -8.875 C 8.34375 -8.90625 8.347656 -8.960938 8.359375 -9.046875 C 8.367188 -9.140625 8.375 -9.21875 8.375 -9.28125 C 8.375 -9.414062 8.296875 -9.570312 8.140625 -9.75 C 7.992188 -9.9375 7.773438 -10.097656 7.484375 -10.234375 C 7.171875 -10.390625 6.835938 -10.5 6.484375 -10.5625 C 6.128906 -10.625 5.769531 -10.65625 5.40625 -10.65625 C 4.789062 -10.65625 4.320312 -10.523438 4 -10.265625 C 3.6875 -10.015625 3.53125 -9.660156 3.53125 -9.203125 C 3.53125 -8.785156 3.738281 -8.457031 4.15625 -8.21875 C 4.582031 -7.988281 5.304688 -7.765625 6.328125 -7.546875 C 6.953125 -7.421875 7.539062 -7.269531 8.09375 -7.09375 C 8.644531 -6.925781 9.128906 -6.703125 9.546875 -6.421875 C 9.972656 -6.140625 10.304688 -5.785156 10.546875 -5.359375 C 10.796875 -4.929688 10.921875 -4.390625 10.921875 -3.734375 C 10.921875 -3.234375 10.8125 -2.753906 10.59375 -2.296875 C 10.375 -1.835938 10.039062 -1.425781 9.59375 -1.0625 C 9.144531 -0.695312 8.585938 -0.40625 7.921875 -0.1875 C 7.253906 0.03125 6.476562 0.140625 5.59375 0.140625 C 4.9375 0.140625 4.328125 0.0664062 3.765625 -0.078125 C 3.203125 -0.222656 2.664062 -0.414062 2.15625 -0.65625 C 1.8125 -0.8125 1.566406 -0.890625 1.421875 -0.890625 C 1.347656 -0.890625 1.285156 -0.863281 1.234375 -0.8125 C 1.191406 -0.769531 1.113281 -0.6875 1 -0.5625 L 0.765625 -0.703125 L 2.171875 -3.59375 L 2.5 -3.453125 C 2.488281 -3.410156 2.476562 -3.375 2.46875 -3.34375 C 2.457031 -3.3125 2.453125 -3.269531 2.453125 -3.21875 C 2.453125 -3.007812 2.554688 -2.828125 2.765625 -2.671875 C 2.972656 -2.515625 3.21875 -2.375 3.5 -2.25 C 3.863281 -2.101562 4.234375 -1.992188 4.609375 -1.921875 C 4.992188 -1.859375 5.367188 -1.828125 5.734375 -1.828125 C 6.617188 -1.828125 7.3125 -1.960938 7.8125 -2.234375 C 8.320312 -2.503906 8.578125 -2.972656 8.578125 -3.640625 C 8.578125 -4.078125 8.363281 -4.425781 7.9375 -4.6875 C 7.519531 -4.945312 6.785156 -5.1875 5.734375 -5.40625 C 5.148438 -5.53125 4.582031 -5.664062 4.03125 -5.8125 C 3.488281 -5.957031 3.007812 -6.15625 2.59375 -6.40625 C 2.175781 -6.664062 1.835938 -6.988281 1.578125 -7.375 C 1.316406 -7.769531 1.1875 -8.269531 1.1875 -8.875 C 1.1875 -9.363281 1.273438 -9.820312 1.453125 -10.25 C 1.640625 -10.675781 1.914062 -11.050781 2.28125 -11.375 C 2.644531 -11.707031 3.109375 -11.96875 3.671875 -12.15625 C 4.234375 -12.34375 4.890625 -12.4375 5.640625 -12.4375 Z M 5.640625 -12.4375 "/></g></g></g><g fill="#000000" fill-opacity="1"><g transform="translate(167.957462, 322.274107)"><g><path d="M 0.75 -12.71875 L 1.078125 -12.71875 C 1.109375 -12.507812 1.191406 -12.382812 1.328125 -12.34375 C 1.472656 -12.3125 1.65625 -12.296875 1.875 -12.296875 L 9.8125 -12.296875 C 10.03125 -12.296875 10.207031 -12.3125 10.34375 -12.34375 C 10.488281 -12.382812 10.578125 -12.507812 10.609375 -12.71875 L 10.9375 -12.71875 L 10.9375 -9.796875 L 10.609375 -9.796875 C 10.578125 -10.015625 10.503906 -10.15625 10.390625 -10.21875 C 10.285156 -10.289062 10.09375 -10.328125 9.8125 -10.328125 L 7.015625 -10.328125 L 7.015625 -0.9375 C 7.015625 -0.726562 7.050781 -0.582031 7.125 -0.5 C 7.207031 -0.414062 7.359375 -0.359375 7.578125 -0.328125 L 7.578125 0 L 4.203125 0 L 4.203125 -0.328125 C 4.390625 -0.359375 4.515625 -0.421875 4.578125 -0.515625 C 4.640625 -0.609375 4.671875 -0.75 4.671875 -0.9375 L 4.671875 -10.328125 L 1.875 -10.328125 C 1.625 -10.328125 1.4375 -10.300781 1.3125 -10.25 C 1.1875 -10.195312 1.109375 -10.046875 1.078125 -9.796875 L 0.75 -9.796875 Z M 0.75 -12.71875 "/></g></g></g><g fill="#000000" fill-opacity="1"><g transform="translate(182.647165, 322.274107)"><g><path d="M 10.328125 -9.953125 L 10 -9.953125 C 9.96875 -10.128906 9.878906 -10.234375 9.734375 -10.265625 C 9.597656 -10.304688 9.421875 -10.328125 9.203125 -10.328125 L 4.15625 -10.328125 L 4.15625 -7.296875 L 7.171875 -7.296875 C 7.378906 -7.296875 7.550781 -7.3125 7.6875 -7.34375 C 7.832031 -7.382812 7.921875 -7.507812 7.953125 -7.71875 L 8.28125 -7.71875 L 8.28125 -4.953125 L 7.953125 -4.953125 C 7.921875 -5.128906 7.835938 -5.234375 7.703125 -5.265625 C 7.566406 -5.304688 7.390625 -5.328125 7.171875 -5.328125 L 4.15625 -5.328125 L 4.15625 -1.96875 L 9.5625 -1.96875 C 9.757812 -1.96875 9.925781 -1.984375 10.0625 -2.015625 C 10.207031 -2.054688 10.296875 -2.179688 10.328125 -2.390625 L 10.65625 -2.390625 L 10.65625 0.421875 L 10.328125 0.421875 C 10.296875 0.210938 10.207031 0.0859375 10.0625 0.046875 C 9.925781 0.015625 9.757812 0 9.5625 0 L 1.078125 0 L 1.078125 -0.328125 C 1.398438 -0.359375 1.601562 -0.421875 1.6875 -0.515625 C 1.78125 -0.609375 1.828125 -0.753906 1.828125 -0.953125 L 1.828125 -11.34375 C 1.828125 -11.539062 1.78125 -11.6875 1.6875 -11.78125 C 1.601562 -11.875 1.382812 -11.9375 1.03125 -11.96875 L 1.03125 -12.296875 L 9.234375 -12.296875 C 9.429688 -12.296875 9.597656 -12.3125 9.734375 -12.34375 C 9.878906 -12.382812 9.96875 -12.507812 10 -12.71875 L 10.328125 -12.71875 Z M 10.328125 -9.953125 "/></g></g></g><g fill="#000000" fill-opacity="1"><g transform="translate(197.336895, 322.274107)"><g><path d="M 5.59375 -1.96875 C 6.382812 -1.96875 7.039062 -2.046875 7.5625 -2.203125 C 8.082031 -2.359375 8.5 -2.601562 8.8125 -2.9375 C 9.132812 -3.28125 9.359375 -3.710938 9.484375 -4.234375 C 9.609375 -4.765625 9.671875 -5.398438 9.671875 -6.140625 C 9.671875 -6.910156 9.597656 -7.5625 9.453125 -8.09375 C 9.316406 -8.632812 9.085938 -9.066406 8.765625 -9.390625 C 8.453125 -9.722656 8.03125 -9.960938 7.5 -10.109375 C 6.96875 -10.253906 6.320312 -10.328125 5.5625 -10.328125 L 4.109375 -10.328125 L 4.109375 -1.96875 Z M 6.40625 -12.296875 C 7.289062 -12.296875 8.078125 -12.148438 8.765625 -11.859375 C 9.460938 -11.578125 10.050781 -11.171875 10.53125 -10.640625 C 11.007812 -10.109375 11.375 -9.457031 11.625 -8.6875 C 11.882812 -7.925781 12.015625 -7.078125 12.015625 -6.140625 C 12.015625 -4.035156 11.472656 -2.484375 10.390625 -1.484375 C 9.316406 -0.492188 7.816406 0 5.890625 0 L 1.21875 0 L 1.21875 -0.328125 C 1.4375 -0.359375 1.582031 -0.414062 1.65625 -0.5 C 1.738281 -0.582031 1.78125 -0.726562 1.78125 -0.9375 L 1.78125 -11.359375 C 1.78125 -11.566406 1.738281 -11.710938 1.65625 -11.796875 C 1.582031 -11.878906 1.4375 -11.9375 1.21875 -11.96875 L 1.21875 -12.296875 Z M 6.40625 -12.296875 "/></g></g></g><g fill="#000000" fill-opacity="1"><g transform="translate(213.334204, 322.274107)"><g/></g></g><g fill="#000000" fill-opacity="1"><g transform="translate(222.186414, 322.274107)"><g><path d="M 3.484375 -12.296875 L 3.484375 -11.96875 C 3.328125 -11.9375 3.222656 -11.894531 3.171875 -11.84375 C 3.128906 -11.800781 3.109375 -11.742188 3.109375 -11.671875 C 3.109375 -11.546875 3.1875 -11.203125 3.34375 -10.640625 C 3.507812 -10.078125 3.75 -9.273438 4.0625 -8.234375 C 4.375 -7.179688 4.632812 -6.289062 4.84375 -5.5625 C 5.0625 -4.832031 5.21875 -4.238281 5.3125 -3.78125 L 5.359375 -3.78125 C 5.453125 -4.28125 5.59375 -4.90625 5.78125 -5.65625 C 5.976562 -6.40625 6.222656 -7.296875 6.515625 -8.328125 C 6.785156 -9.253906 7 -10.007812 7.15625 -10.59375 C 7.320312 -11.1875 7.40625 -11.519531 7.40625 -11.59375 C 7.40625 -11.695312 7.378906 -11.773438 7.328125 -11.828125 C 7.273438 -11.890625 7.144531 -11.9375 6.9375 -11.96875 L 6.9375 -12.296875 L 9.984375 -12.296875 L 9.984375 -11.96875 C 9.773438 -11.90625 9.644531 -11.835938 9.59375 -11.765625 C 9.539062 -11.703125 9.515625 -11.609375 9.515625 -11.484375 C 9.515625 -11.390625 9.597656 -11.039062 9.765625 -10.4375 C 9.941406 -9.832031 10.191406 -8.988281 10.515625 -7.90625 C 10.859375 -6.757812 11.125 -5.832031 11.3125 -5.125 C 11.5 -4.414062 11.625 -3.859375 11.6875 -3.453125 L 11.734375 -3.453125 C 11.859375 -4.160156 12.03125 -4.941406 12.25 -5.796875 C 12.476562 -6.648438 12.742188 -7.570312 13.046875 -8.5625 C 13.335938 -9.539062 13.550781 -10.265625 13.6875 -10.734375 C 13.832031 -11.210938 13.90625 -11.492188 13.90625 -11.578125 C 13.90625 -11.660156 13.875 -11.734375 13.8125 -11.796875 C 13.75 -11.859375 13.625 -11.914062 13.4375 -11.96875 L 13.4375 -12.296875 L 16.484375 -12.296875 L 16.484375 -11.96875 C 16.335938 -11.90625 16.222656 -11.820312 16.140625 -11.71875 C 16.054688 -11.625 15.96875 -11.421875 15.875 -11.109375 L 13.203125 -2.203125 C 13.046875 -1.679688 12.953125 -1.320312 12.921875 -1.125 C 12.890625 -0.9375 12.875 -0.785156 12.875 -0.671875 C 12.875 -0.597656 12.894531 -0.53125 12.9375 -0.46875 C 12.976562 -0.40625 13.035156 -0.359375 13.109375 -0.328125 L 13.109375 0 L 10.125 0 L 10.125 -0.328125 C 10.34375 -0.367188 10.453125 -0.484375 10.453125 -0.671875 C 10.453125 -0.816406 10.375 -1.140625 10.21875 -1.640625 C 10.070312 -2.140625 9.851562 -2.878906 9.5625 -3.859375 C 9.25 -4.890625 9.003906 -5.773438 8.828125 -6.515625 C 8.648438 -7.265625 8.53125 -7.890625 8.46875 -8.390625 L 8.421875 -8.390625 C 8.328125 -7.847656 8.164062 -7.140625 7.9375 -6.265625 C 7.707031 -5.390625 7.414062 -4.3125 7.0625 -3.03125 C 6.84375 -2.289062 6.675781 -1.722656 6.5625 -1.328125 C 6.457031 -0.941406 6.40625 -0.722656 6.40625 -0.671875 C 6.40625 -0.597656 6.4375 -0.53125 6.5 -0.46875 C 6.570312 -0.40625 6.65625 -0.359375 6.75 -0.328125 L 6.75 0 L 3.859375 0 L 3.859375 -0.328125 C 3.898438 -0.328125 3.953125 -0.347656 4.015625 -0.390625 C 4.078125 -0.441406 4.109375 -0.5 4.109375 -0.5625 C 4.109375 -0.625 4.070312 -0.765625 4 -0.984375 C 3.9375 -1.203125 3.84375 -1.53125 3.71875 -1.96875 L 0.890625 -11.296875 C 0.804688 -11.566406 0.722656 -11.738281 0.640625 -11.8125 C 0.566406 -11.882812 0.484375 -11.9375 0.390625 -11.96875 L 0.390625 -12.296875 Z M 3.484375 -12.296875 "/></g></g></g><g fill="#000000" fill-opacity="1"><g transform="translate(242.059788, 322.274107)"><g><path d="M 10.328125 -9.953125 L 10 -9.953125 C 9.96875 -10.128906 9.878906 -10.234375 9.734375 -10.265625 C 9.597656 -10.304688 9.421875 -10.328125 9.203125 -10.328125 L 4.15625 -10.328125 L 4.15625 -7.296875 L 7.171875 -7.296875 C 7.378906 -7.296875 7.550781 -7.3125 7.6875 -7.34375 C 7.832031 -7.382812 7.921875 -7.507812 7.953125 -7.71875 L 8.28125 -7.71875 L 8.28125 -4.953125 L 7.953125 -4.953125 C 7.921875 -5.128906 7.835938 -5.234375 7.703125 -5.265625 C 7.566406 -5.304688 7.390625 -5.328125 7.171875 -5.328125 L 4.15625 -5.328125 L 4.15625 -1.96875 L 9.5625 -1.96875 C 9.757812 -1.96875 9.925781 -1.984375 10.0625 -2.015625 C 10.207031 -2.054688 10.296875 -2.179688 10.328125 -2.390625 L 10.65625 -2.390625 L 10.65625 0.421875 L 10.328125 0.421875 C 10.296875 0.210938 10.207031 0.0859375 10.0625 0.046875 C 9.925781 0.015625 9.757812 0 9.5625 0 L 1.078125 0 L 1.078125 -0.328125 C 1.398438 -0.359375 1.601562 -0.421875 1.6875 -0.515625 C 1.78125 -0.609375 1.828125 -0.753906 1.828125 -0.953125 L 1.828125 -11.34375 C 1.828125 -11.539062 1.78125 -11.6875 1.6875 -11.78125 C 1.601562 -11.875 1.382812 -11.9375 1.03125 -11.96875 L 1.03125 -12.296875 L 9.234375 -12.296875 C 9.429688 -12.296875 9.597656 -12.3125 9.734375 -12.34375 C 9.878906 -12.382812 9.96875 -12.507812 10 -12.71875 L 10.328125 -12.71875 Z M 10.328125 -9.953125 "/></g></g></g><g fill="#000000" fill-opacity="1"><g transform="translate(256.749517, 322.274107)"><g><path d="M 4.15625 -4.765625 L 7.265625 -4.765625 L 5.734375 -9.671875 L 5.6875 -9.671875 Z M 7.78125 -12.296875 L 7.78125 -11.96875 C 7.59375 -11.945312 7.460938 -11.898438 7.390625 -11.828125 C 7.328125 -11.765625 7.296875 -11.679688 7.296875 -11.578125 C 7.296875 -11.515625 7.304688 -11.441406 7.328125 -11.359375 C 7.347656 -11.285156 7.40625 -11.109375 7.5 -10.828125 L 10.890625 -0.953125 C 10.972656 -0.722656 11.046875 -0.566406 11.109375 -0.484375 C 11.171875 -0.410156 11.269531 -0.359375 11.40625 -0.328125 L 11.40625 0 L 8.234375 0 L 8.234375 -0.328125 C 8.515625 -0.367188 8.65625 -0.453125 8.65625 -0.578125 C 8.65625 -0.671875 8.613281 -0.828125 8.53125 -1.046875 L 7.8125 -3.125 L 3.59375 -3.125 L 2.9375 -1.1875 C 2.882812 -1.050781 2.859375 -0.910156 2.859375 -0.765625 C 2.859375 -0.660156 2.890625 -0.5625 2.953125 -0.46875 C 3.023438 -0.382812 3.160156 -0.335938 3.359375 -0.328125 L 3.359375 0 L 0.28125 0 L 0.28125 -0.328125 C 0.4375 -0.335938 0.550781 -0.425781 0.625 -0.59375 C 0.707031 -0.757812 0.796875 -0.972656 0.890625 -1.234375 L 4.15625 -10.828125 C 4.21875 -10.992188 4.269531 -11.15625 4.3125 -11.3125 C 4.363281 -11.46875 4.390625 -11.59375 4.390625 -11.6875 C 4.390625 -11.820312 4.21875 -11.914062 3.875 -11.96875 L 3.875 -12.296875 Z M 7.78125 -12.296875 "/></g></g></g><g fill="#000000" fill-opacity="1"><g transform="translate(271.439203, 322.274107)"><g><path d="M 6.96875 -7.0625 C 8.320312 -7.0625 9 -7.609375 9 -8.703125 C 9 -9.222656 8.832031 -9.625 8.5 -9.90625 C 8.175781 -10.1875 7.664062 -10.328125 6.96875 -10.328125 L 4.28125 -10.328125 L 4.28125 -7.0625 Z M 7.265625 -12.296875 C 7.859375 -12.296875 8.40625 -12.21875 8.90625 -12.0625 C 9.40625 -11.914062 9.832031 -11.695312 10.1875 -11.40625 C 10.550781 -11.125 10.832031 -10.769531 11.03125 -10.34375 C 11.238281 -9.914062 11.34375 -9.425781 11.34375 -8.875 C 11.34375 -7.988281 11.125 -7.238281 10.6875 -6.625 C 10.25 -6.007812 9.585938 -5.601562 8.703125 -5.40625 L 10.421875 -2.03125 C 10.546875 -1.769531 10.65625 -1.539062 10.75 -1.34375 C 10.84375 -1.144531 10.914062 -1.007812 10.96875 -0.9375 C 11.070312 -0.71875 11.171875 -0.566406 11.265625 -0.484375 C 11.359375 -0.410156 11.476562 -0.359375 11.625 -0.328125 L 11.625 0 L 8.15625 0 L 8.15625 -0.328125 C 8.28125 -0.335938 8.390625 -0.363281 8.484375 -0.40625 C 8.578125 -0.445312 8.625 -0.519531 8.625 -0.625 C 8.625 -0.707031 8.601562 -0.796875 8.5625 -0.890625 C 8.53125 -0.984375 8.484375 -1.09375 8.421875 -1.21875 C 8.304688 -1.414062 7.632812 -2.707031 6.40625 -5.09375 L 4.28125 -5.09375 L 4.28125 -0.9375 C 4.28125 -0.726562 4.316406 -0.582031 4.390625 -0.5 C 4.472656 -0.414062 4.625 -0.359375 4.84375 -0.328125 L 4.84375 0 L 1.421875 0 L 1.421875 -0.328125 C 1.628906 -0.359375 1.765625 -0.414062 1.828125 -0.5 C 1.898438 -0.582031 1.9375 -0.726562 1.9375 -0.9375 L 1.9375 -11.359375 C 1.9375 -11.566406 1.894531 -11.710938 1.8125 -11.796875 C 1.738281 -11.878906 1.59375 -11.9375 1.375 -11.96875 L 1.375 -12.296875 Z M 7.265625 -12.296875 "/></g></g></g><g fill="#000000" fill-opacity="1"><g transform="translate(287.436527, 322.274107)"><g><path d="M 4.15625 -4.765625 L 7.265625 -4.765625 L 5.734375 -9.671875 L 5.6875 -9.671875 Z M 7.78125 -12.296875 L 7.78125 -11.96875 C 7.59375 -11.945312 7.460938 -11.898438 7.390625 -11.828125 C 7.328125 -11.765625 7.296875 -11.679688 7.296875 -11.578125 C 7.296875 -11.515625 7.304688 -11.441406 7.328125 -11.359375 C 7.347656 -11.285156 7.40625 -11.109375 7.5 -10.828125 L 10.890625 -0.953125 C 10.972656 -0.722656 11.046875 -0.566406 11.109375 -0.484375 C 11.171875 -0.410156 11.269531 -0.359375 11.40625 -0.328125 L 11.40625 0 L 8.234375 0 L 8.234375 -0.328125 C 8.515625 -0.367188 8.65625 -0.453125 8.65625 -0.578125 C 8.65625 -0.671875 8.613281 -0.828125 8.53125 -1.046875 L 7.8125 -3.125 L 3.59375 -3.125 L 2.9375 -1.1875 C 2.882812 -1.050781 2.859375 -0.910156 2.859375 -0.765625 C 2.859375 -0.660156 2.890625 -0.5625 2.953125 -0.46875 C 3.023438 -0.382812 3.160156 -0.335938 3.359375 -0.328125 L 3.359375 0 L 0.28125 0 L 0.28125 -0.328125 C 0.4375 -0.335938 0.550781 -0.425781 0.625 -0.59375 C 0.707031 -0.757812 0.796875 -0.972656 0.890625 -1.234375 L 4.15625 -10.828125 C 4.21875 -10.992188 4.269531 -11.15625 4.3125 -11.3125 C 4.363281 -11.46875 4.390625 -11.59375 4.390625 -11.6875 C 4.390625 -11.820312 4.21875 -11.914062 3.875 -11.96875 L 3.875 -12.296875 Z M 7.78125 -12.296875 "/></g></g></g><g fill="#000000" fill-opacity="1"><g transform="translate(302.126245, 322.274107)"><g><path d="M 6.59375 -1.96875 C 7.46875 -1.96875 8.128906 -2.109375 8.578125 -2.390625 C 9.023438 -2.679688 9.25 -3.125 9.25 -3.71875 C 9.25 -4.3125 9.023438 -4.75 8.578125 -5.03125 C 8.128906 -5.320312 7.46875 -5.46875 6.59375 -5.46875 L 4.203125 -5.46875 L 4.203125 -1.96875 Z M 6.6875 -7.4375 C 7.351562 -7.4375 7.875 -7.539062 8.25 -7.75 C 8.632812 -7.957031 8.828125 -8.332031 8.828125 -8.875 C 8.828125 -9.40625 8.640625 -9.78125 8.265625 -10 C 7.898438 -10.21875 7.375 -10.328125 6.6875 -10.328125 L 4.203125 -10.328125 L 4.203125 -7.4375 Z M 7.03125 -12.296875 C 7.6875 -12.296875 8.265625 -12.203125 8.765625 -12.015625 C 9.273438 -11.835938 9.707031 -11.597656 10.0625 -11.296875 C 10.425781 -10.992188 10.703125 -10.644531 10.890625 -10.25 C 11.078125 -9.863281 11.171875 -9.460938 11.171875 -9.046875 C 11.171875 -8.410156 10.984375 -7.84375 10.609375 -7.34375 C 10.234375 -6.851562 9.742188 -6.523438 9.140625 -6.359375 L 9.140625 -6.3125 C 9.953125 -6.125 10.5625 -5.785156 10.96875 -5.296875 C 11.382812 -4.816406 11.59375 -4.148438 11.59375 -3.296875 C 11.59375 -2.796875 11.488281 -2.34375 11.28125 -1.9375 C 11.070312 -1.53125 10.785156 -1.179688 10.421875 -0.890625 C 10.066406 -0.609375 9.632812 -0.390625 9.125 -0.234375 C 8.625 -0.078125 8.082031 0 7.5 0 L 1.21875 0 L 1.21875 -0.328125 C 1.5 -0.359375 1.675781 -0.421875 1.75 -0.515625 C 1.832031 -0.609375 1.875 -0.75 1.875 -0.9375 L 1.875 -11.359375 C 1.875 -11.566406 1.828125 -11.710938 1.734375 -11.796875 C 1.648438 -11.878906 1.476562 -11.9375 1.21875 -11.96875 L 1.21875 -12.296875 Z M 7.03125 -12.296875 "/></g></g></g><g fill="#000000" fill-opacity="1"><g transform="translate(318.123537, 322.274107)"><g><path d="M 4.703125 -12.296875 L 4.703125 -11.96875 C 4.359375 -11.9375 4.140625 -11.878906 4.046875 -11.796875 C 3.953125 -11.710938 3.90625 -11.5625 3.90625 -11.34375 L 3.90625 -1.96875 L 9.0625 -1.96875 C 9.3125 -1.96875 9.492188 -2 9.609375 -2.0625 C 9.734375 -2.125 9.8125 -2.28125 9.84375 -2.53125 L 10.171875 -2.53125 L 10.171875 0.421875 L 9.84375 0.421875 C 9.8125 0.210938 9.722656 0.0859375 9.578125 0.046875 C 9.441406 0.015625 9.269531 0 9.0625 0 L 0.90625 0 L 0.90625 -0.328125 C 1.1875 -0.359375 1.363281 -0.421875 1.4375 -0.515625 C 1.519531 -0.609375 1.5625 -0.75 1.5625 -0.9375 L 1.5625 -11.34375 C 1.5625 -11.5625 1.519531 -11.710938 1.4375 -11.796875 C 1.351562 -11.878906 1.160156 -11.9375 0.859375 -11.96875 L 0.859375 -12.296875 Z M 4.703125 -12.296875 "/></g></g></g><g fill="#000000" fill-opacity="1"><g transform="translate(331.505646, 322.274107)"><g><path d="M 10.328125 -9.953125 L 10 -9.953125 C 9.96875 -10.128906 9.878906 -10.234375 9.734375 -10.265625 C 9.597656 -10.304688 9.421875 -10.328125 9.203125 -10.328125 L 4.15625 -10.328125 L 4.15625 -7.296875 L 7.171875 -7.296875 C 7.378906 -7.296875 7.550781 -7.3125 7.6875 -7.34375 C 7.832031 -7.382812 7.921875 -7.507812 7.953125 -7.71875 L 8.28125 -7.71875 L 8.28125 -4.953125 L 7.953125 -4.953125 C 7.921875 -5.128906 7.835938 -5.234375 7.703125 -5.265625 C 7.566406 -5.304688 7.390625 -5.328125 7.171875 -5.328125 L 4.15625 -5.328125 L 4.15625 -1.96875 L 9.5625 -1.96875 C 9.757812 -1.96875 9.925781 -1.984375 10.0625 -2.015625 C 10.207031 -2.054688 10.296875 -2.179688 10.328125 -2.390625 L 10.65625 -2.390625 L 10.65625 0.421875 L 10.328125 0.421875 C 10.296875 0.210938 10.207031 0.0859375 10.0625 0.046875 C 9.925781 0.015625 9.757812 0 9.5625 0 L 1.078125 0 L 1.078125 -0.328125 C 1.398438 -0.359375 1.601562 -0.421875 1.6875 -0.515625 C 1.78125 -0.609375 1.828125 -0.753906 1.828125 -0.953125 L 1.828125 -11.34375 C 1.828125 -11.539062 1.78125 -11.6875 1.6875 -11.78125 C 1.601562 -11.875 1.382812 -11.9375 1.03125 -11.96875 L 1.03125 -12.296875 L 9.234375 -12.296875 C 9.429688 -12.296875 9.597656 -12.3125 9.734375 -12.34375 C 9.878906 -12.382812 9.96875 -12.507812 10 -12.71875 L 10.328125 -12.71875 Z M 10.328125 -9.953125 "/></g></g></g><g fill="#000000" fill-opacity="1"><g transform="translate(346.195392, 322.274107)"><g><path d="M 5.640625 -12.4375 C 6.460938 -12.4375 7.132812 -12.351562 7.65625 -12.1875 C 8.175781 -12.019531 8.59375 -11.867188 8.90625 -11.734375 C 9.125 -11.640625 9.285156 -11.566406 9.390625 -11.515625 C 9.503906 -11.472656 9.597656 -11.453125 9.671875 -11.453125 C 9.796875 -11.453125 9.894531 -11.472656 9.96875 -11.515625 C 10.050781 -11.566406 10.132812 -11.640625 10.21875 -11.734375 L 10.40625 -11.640625 L 8.671875 -8.75 L 8.34375 -8.875 C 8.34375 -8.90625 8.347656 -8.960938 8.359375 -9.046875 C 8.367188 -9.140625 8.375 -9.21875 8.375 -9.28125 C 8.375 -9.414062 8.296875 -9.570312 8.140625 -9.75 C 7.992188 -9.9375 7.773438 -10.097656 7.484375 -10.234375 C 7.171875 -10.390625 6.835938 -10.5 6.484375 -10.5625 C 6.128906 -10.625 5.769531 -10.65625 5.40625 -10.65625 C 4.789062 -10.65625 4.320312 -10.523438 4 -10.265625 C 3.6875 -10.015625 3.53125 -9.660156 3.53125 -9.203125 C 3.53125 -8.785156 3.738281 -8.457031 4.15625 -8.21875 C 4.582031 -7.988281 5.304688 -7.765625 6.328125 -7.546875 C 6.953125 -7.421875 7.539062 -7.269531 8.09375 -7.09375 C 8.644531 -6.925781 9.128906 -6.703125 9.546875 -6.421875 C 9.972656 -6.140625 10.304688 -5.785156 10.546875 -5.359375 C 10.796875 -4.929688 10.921875 -4.390625 10.921875 -3.734375 C 10.921875 -3.234375 10.8125 -2.753906 10.59375 -2.296875 C 10.375 -1.835938 10.039062 -1.425781 9.59375 -1.0625 C 9.144531 -0.695312 8.585938 -0.40625 7.921875 -0.1875 C 7.253906 0.03125 6.476562 0.140625 5.59375 0.140625 C 4.9375 0.140625 4.328125 0.0664062 3.765625 -0.078125 C 3.203125 -0.222656 2.664062 -0.414062 2.15625 -0.65625 C 1.8125 -0.8125 1.566406 -0.890625 1.421875 -0.890625 C 1.347656 -0.890625 1.285156 -0.863281 1.234375 -0.8125 C 1.191406 -0.769531 1.113281 -0.6875 1 -0.5625 L 0.765625 -0.703125 L 2.171875 -3.59375 L 2.5 -3.453125 C 2.488281 -3.410156 2.476562 -3.375 2.46875 -3.34375 C 2.457031 -3.3125 2.453125 -3.269531 2.453125 -3.21875 C 2.453125 -3.007812 2.554688 -2.828125 2.765625 -2.671875 C 2.972656 -2.515625 3.21875 -2.375 3.5 -2.25 C 3.863281 -2.101562 4.234375 -1.992188 4.609375 -1.921875 C 4.992188 -1.859375 5.367188 -1.828125 5.734375 -1.828125 C 6.617188 -1.828125 7.3125 -1.960938 7.8125 -2.234375 C 8.320312 -2.503906 8.578125 -2.972656 8.578125 -3.640625 C 8.578125 -4.078125 8.363281 -4.425781 7.9375 -4.6875 C 7.519531 -4.945312 6.785156 -5.1875 5.734375 -5.40625 C 5.148438 -5.53125 4.582031 -5.664062 4.03125 -5.8125 C 3.488281 -5.957031 3.007812 -6.15625 2.59375 -6.40625 C 2.175781 -6.664062 1.835938 -6.988281 1.578125 -7.375 C 1.316406 -7.769531 1.1875 -8.269531 1.1875 -8.875 C 1.1875 -9.363281 1.273438 -9.820312 1.453125 -10.25 C 1.640625 -10.675781 1.914062 -11.050781 2.28125 -11.375 C 2.644531 -11.707031 3.109375 -11.96875 3.671875 -12.15625 C 4.234375 -12.34375 4.890625 -12.4375 5.640625 -12.4375 Z M 5.640625 -12.4375 "/></g></g></g><g fill="#000000" fill-opacity="1"><g transform="translate(55.35422, 46.163785)"><g><path d="M 0.132812 5.925781 L 0.414062 18.628906 L 119.980469 15.972656 L 119.699219 3.269531 Z M 0.132812 5.925781 "/></g></g></g></svg>