<svg xmlns="http://www.w3.org/2000/svg" xmlns:xlink="http://www.w3.org/1999/xlink" width="500" zoomAndPan="magnify" viewBox="0 0 375 374.999991" height="500" preserveAspectRatio="xMidYMid meet" version="1.0"><defs><g/><clipPath id="a9f547b858"><path d="M 249 47 L 338 47 L 338 138 L 249 138 Z M 249 47 " clip-rule="nonzero"/></clipPath><clipPath id="112a759423"><path d="M 275.226562 29.84375 L 354.222656 68.015625 L 313.664062 151.949219 L 234.667969 113.777344 Z M 275.226562 29.84375 " clip-rule="nonzero"/></clipPath><clipPath id="2d44e88644"><path d="M 275.226562 29.84375 L 354.222656 68.015625 L 313.664062 151.949219 L 234.667969 113.777344 Z M 275.226562 29.84375 " clip-rule="nonzero"/></clipPath><clipPath id="5d1c346e69"><path d="M 275.246094 29.855469 L 354.613281 68.207031 L 313.824219 152.613281 L 234.460938 114.261719 Z M 275.246094 29.855469 " clip-rule="nonzero"/></clipPath><clipPath id="64911adae0"><path d="M 275.246094 29.855469 L 354.222656 68.019531 L 313.65625 151.972656 L 234.675781 113.8125 Z M 275.246094 29.855469 " clip-rule="nonzero"/></clipPath><clipPath id="8ecf2cd7cd"><path d="M 286.265625 85.375 L 298.601562 85.375 L 298.601562 100.457031 L 286.265625 100.457031 Z M 286.265625 85.375 " clip-rule="nonzero"/></clipPath><clipPath id="45366a9032"><path d="M 286.265625 93 L 293 93 L 293 100 L 286.265625 100 Z M 286.265625 93 " clip-rule="nonzero"/></clipPath><clipPath id="1338e6837d"><path d="M 286.265625 86 L 293 86 L 293 94 L 286.265625 94 Z M 286.265625 86 " clip-rule="nonzero"/></clipPath><clipPath id="39b4f50744"><path d="M 292 93 L 298.601562 93 L 298.601562 100 L 292 100 Z M 292 93 " clip-rule="nonzero"/></clipPath><clipPath id="d56077ff4b"><path d="M 292 86 L 298.601562 86 L 298.601562 94 L 292 94 Z M 292 86 " clip-rule="nonzero"/></clipPath><clipPath id="556a9dc42f"><path d="M 286.265625 86 L 298.601562 86 L 298.601562 100 L 286.265625 100 Z M 286.265625 86 " clip-rule="nonzero"/></clipPath></defs><g fill="#ffffff" fill-opacity="1"><g transform="translate(65.91463, 273.204146)"><g><path d="M 195.382812 0 L 262.679688 -160.027344 C 272.605469 -182.667969 267.332031 -207.167969 243.453125 -216.472656 C 218.332031 -226.394531 192.589844 -211.820312 180.496094 -181.425781 L 161.578125 -137.699219 L 127.773438 -219.261719 L 101.722656 -219.261719 L 148.554688 -106.683594 L 116.917969 -31.011719 L 37.835938 -219.261719 L 10.855469 -219.261719 L 103.582031 0 L 106.375 0 L 149.484375 -103.894531 L 193.210938 0 Z M 163.4375 -134.285156 L 182.667969 -181.425781 C 193.210938 -205.925781 215.851562 -224.535156 242.832031 -214.609375 C 265.78125 -205.617188 269.816406 -181.425781 261.128906 -160.027344 L 206.546875 -31.011719 Z M 163.4375 -134.285156 "/></g></g></g><g clip-path="url(#a9f547b858)"><g clip-path="url(#112a759423)"><g clip-path="url(#2d44e88644)"><g clip-path="url(#5d1c346e69)"><g clip-path="url(#64911adae0)"><path fill="#365b9d" d="M 297.195312 95.117188 C 296.15625 97.265625 293.582031 98.167969 291.445312 97.132812 C 290.664062 96.757812 290.0625 96.175781 289.644531 95.488281 L 281.460938 96.710938 C 280.519531 96.847656 279.648438 96.199219 279.511719 95.257812 C 279.375 94.316406 280.023438 93.4375 280.964844 93.296875 L 289.199219 92.066406 C 289.265625 91.832031 289.339844 91.601562 289.449219 91.375 C 290.21875 89.785156 291.839844 88.878906 293.492188 88.941406 L 303.417969 68.398438 C 303.835938 67.542969 304.863281 67.179688 305.71875 67.59375 C 306.574219 68.007812 306.929688 69.039062 306.515625 69.894531 L 296.589844 90.4375 C 297.667969 91.695312 297.964844 93.527344 297.195312 95.117188 Z M 277.167969 126.675781 C 258.78125 117.789062 251.109375 95.621094 260.027344 77.15625 C 268.949219 58.699219 291.085938 50.9375 309.472656 59.820312 C 327.863281 68.707031 335.535156 90.875 326.617188 109.335938 C 317.695312 127.796875 295.558594 135.558594 277.167969 126.675781 Z M 316.757812 55.976562 C 317.640625 55.773438 318.324219 55.339844 318.652344 54.664062 C 319.480469 52.949219 317.726562 50.386719 314.734375 48.9375 C 311.742188 47.492188 308.640625 47.710938 307.8125 49.429688 C 307.484375 50.101562 307.570312 50.910156 307.960938 51.726562 C 287.160156 44.386719 263.691406 53.765625 253.835938 74.164062 C 243.253906 96.0625 252.359375 122.355469 274.164062 132.890625 C 295.972656 143.429688 322.230469 134.222656 332.808594 112.328125 C 342.667969 91.925781 335.433594 67.710938 316.757812 55.976562 " fill-opacity="1" fill-rule="nonzero"/><path fill="#ffffff" d="M 297.195312 95.117188 C 296.15625 97.265625 293.582031 98.167969 291.445312 97.132812 C 290.664062 96.757812 290.0625 96.175781 289.644531 95.488281 L 281.460938 96.710938 C 280.519531 96.847656 279.648438 96.199219 279.511719 95.257812 C 279.375 94.316406 280.023438 93.4375 280.964844 93.296875 L 289.199219 92.066406 C 289.265625 91.832031 289.339844 91.601562 289.449219 91.375 C 290.21875 89.785156 291.839844 88.878906 293.492188 88.941406 L 303.417969 68.398438 C 303.835938 67.542969 304.863281 67.179688 305.71875 67.59375 C 306.574219 68.007812 306.929688 69.039062 306.515625 69.894531 L 296.589844 90.4375 C 297.667969 91.695312 297.964844 93.527344 297.195312 95.117188 Z M 277.167969 126.675781 C 258.78125 117.789062 251.109375 95.621094 260.027344 77.15625 C 268.949219 58.699219 291.085938 50.9375 309.472656 59.820312 C 327.863281 68.707031 335.535156 90.875 326.617188 109.335938 C 317.695312 127.796875 295.558594 135.558594 277.167969 126.675781 Z M 316.757812 55.976562 C 317.640625 55.773438 318.324219 55.339844 318.652344 54.664062 C 319.480469 52.949219 317.726562 50.386719 314.734375 48.9375 C 311.742188 47.492188 308.640625 47.710938 307.8125 49.429688 C 307.484375 50.101562 307.570312 50.910156 307.960938 51.726562 C 287.160156 44.386719 263.691406 53.765625 253.835938 74.164062 C 243.253906 96.0625 252.359375 122.355469 274.164062 132.890625 C 295.972656 143.429688 322.230469 134.222656 332.808594 112.328125 C 342.667969 91.925781 335.433594 67.710938 316.757812 55.976562 " fill-opacity="1" fill-rule="nonzero"/></g></g></g></g></g><g clip-path="url(#8ecf2cd7cd)"><path fill="#000000" d="M 298.285156 88.109375 C 294.601562 88.109375 292.929688 86.105469 292.632812 85.703125 L 292.433594 85.441406 L 292.238281 85.703125 C 291.941406 86.105469 290.269531 88.109375 286.585938 88.109375 L 286.34375 88.109375 L 286.34375 93.957031 C 286.652344 95.808594 287.996094 98.34375 292.332031 100.34375 L 292.433594 100.394531 L 292.539062 100.34375 C 296.875 98.34375 298.21875 95.808594 298.527344 93.957031 L 298.527344 88.109375 L 298.285156 88.109375 " fill-opacity="1" fill-rule="nonzero"/><path fill="#ffffff" d="M 298.285156 88.109375 L 298.285156 88.046875 C 296.453125 88.046875 295.128906 87.550781 294.21875 87.003906 C 293.3125 86.460938 292.828125 85.863281 292.679688 85.667969 L 292.484375 85.402344 C 292.472656 85.386719 292.453125 85.378906 292.433594 85.378906 C 292.414062 85.378906 292.398438 85.386719 292.386719 85.402344 L 292.1875 85.667969 C 292.042969 85.863281 291.558594 86.460938 290.648438 87.003906 C 289.742188 87.550781 288.417969 88.046875 286.585938 88.046875 L 286.34375 88.046875 C 286.324219 88.046875 286.308594 88.054688 286.296875 88.066406 C 286.285156 88.078125 286.28125 88.09375 286.28125 88.109375 L 286.28125 93.96875 C 286.4375 94.902344 286.855469 96.011719 287.777344 97.132812 C 288.703125 98.257812 290.132812 99.398438 292.304688 100.402344 L 292.410156 100.449219 C 292.425781 100.457031 292.445312 100.457031 292.460938 100.449219 L 292.5625 100.402344 C 294.738281 99.398438 296.167969 98.257812 297.089844 97.132812 C 298.015625 96.011719 298.433594 94.902344 298.589844 93.96875 L 298.589844 88.109375 C 298.589844 88.09375 298.582031 88.078125 298.570312 88.066406 C 298.558594 88.054688 298.542969 88.046875 298.527344 88.046875 L 298.285156 88.046875 L 298.285156 88.171875 L 298.464844 88.171875 L 298.464844 93.957031 L 298.527344 93.957031 L 298.46875 93.945312 C 298.3125 94.863281 297.90625 95.949219 296.996094 97.054688 C 296.085938 98.164062 294.671875 99.292969 292.511719 100.289062 L 292.433594 100.324219 L 292.359375 100.289062 C 290.195312 99.292969 288.785156 98.164062 287.875 97.054688 C 286.964844 95.949219 286.554688 94.863281 286.402344 93.945312 L 286.34375 93.957031 L 286.402344 93.957031 L 286.402344 88.171875 L 286.585938 88.171875 C 288.4375 88.171875 289.789062 87.664062 290.714844 87.109375 C 291.636719 86.554688 292.136719 85.945312 292.289062 85.742188 L 292.433594 85.542969 L 292.582031 85.742188 C 292.734375 85.945312 293.230469 86.554688 294.15625 87.109375 C 295.078125 87.664062 296.429688 88.171875 298.285156 88.171875 L 298.285156 88.109375 " fill-opacity="1" fill-rule="nonzero"/></g><g clip-path="url(#45366a9032)"><path fill="#000000" d="M 286.894531 93.785156 L 286.894531 93.953125 C 287.175781 95.636719 288.398438 97.945312 292.347656 99.769531 L 292.433594 99.808594 L 292.433594 93.785156 L 286.894531 93.785156 " fill-opacity="1" fill-rule="nonzero"/><path fill="#ffffff" d="M 286.894531 93.785156 L 286.832031 93.785156 L 286.832031 93.960938 C 286.972656 94.816406 287.355469 95.824219 288.195312 96.847656 C 289.039062 97.871094 290.339844 98.910156 292.320312 99.824219 L 292.410156 99.863281 C 292.429688 99.875 292.449219 99.871094 292.46875 99.863281 C 292.484375 99.851562 292.496094 99.832031 292.496094 99.808594 L 292.496094 93.785156 C 292.496094 93.769531 292.492188 93.753906 292.480469 93.742188 C 292.46875 93.730469 292.453125 93.726562 292.433594 93.726562 L 286.894531 93.726562 C 286.875 93.726562 286.859375 93.730469 286.847656 93.742188 C 286.835938 93.753906 286.832031 93.769531 286.832031 93.785156 L 286.894531 93.785156 L 286.894531 93.847656 L 292.375 93.847656 L 292.375 99.714844 L 292.371094 99.714844 C 290.40625 98.804688 289.121094 97.777344 288.292969 96.769531 C 287.464844 95.761719 287.09375 94.777344 286.953125 93.941406 L 286.894531 93.953125 L 286.953125 93.953125 L 286.953125 93.785156 L 286.894531 93.785156 L 286.894531 93.847656 L 286.894531 93.785156 " fill-opacity="1" fill-rule="nonzero"/></g><g clip-path="url(#1338e6837d)"><path fill="#ffffff" d="M 292.433594 93.785156 L 292.433594 86.324219 L 292.257812 86.570312 C 291.984375 86.960938 290.4375 88.738281 287.035156 88.738281 L 286.859375 88.738281 L 286.859375 93.785156 L 292.433594 93.785156 " fill-opacity="1" fill-rule="nonzero"/><path fill="#ffffff" d="M 292.433594 93.785156 L 292.496094 93.785156 L 292.496094 86.324219 C 292.496094 86.296875 292.480469 86.273438 292.453125 86.265625 C 292.429688 86.253906 292.398438 86.265625 292.382812 86.285156 L 292.207031 86.535156 C 292.140625 86.628906 291.996094 86.8125 291.761719 87.03125 C 291.414062 87.355469 290.863281 87.769531 290.085938 88.097656 C 289.308594 88.429688 288.300781 88.675781 287.035156 88.675781 L 286.859375 88.675781 C 286.84375 88.675781 286.828125 88.683594 286.816406 88.695312 C 286.804688 88.707031 286.796875 88.722656 286.796875 88.738281 L 286.796875 93.785156 C 286.796875 93.800781 286.804688 93.820312 286.816406 93.828125 C 286.828125 93.839844 286.84375 93.847656 286.859375 93.847656 L 292.433594 93.847656 C 292.453125 93.847656 292.46875 93.839844 292.480469 93.828125 C 292.492188 93.820312 292.496094 93.800781 292.496094 93.785156 L 292.433594 93.785156 L 292.433594 93.726562 L 286.921875 93.726562 L 286.921875 88.800781 L 287.035156 88.800781 C 288.746094 88.800781 289.996094 88.351562 290.851562 87.855469 C 291.277344 87.605469 291.609375 87.34375 291.847656 87.117188 C 292.085938 86.894531 292.238281 86.707031 292.308594 86.605469 L 292.375 86.515625 L 292.375 93.785156 L 292.433594 93.785156 L 292.433594 93.726562 L 292.433594 93.785156 " fill-opacity="1" fill-rule="nonzero"/></g><path fill="#ffffff" d="M 297.976562 93.785156 L 297.976562 93.953125 C 297.695312 95.636719 296.472656 97.945312 292.523438 99.769531 L 292.433594 99.808594 L 292.433594 93.785156 L 297.976562 93.785156 " fill-opacity="1" fill-rule="nonzero"/><g clip-path="url(#39b4f50744)"><path fill="#ffffff" d="M 297.976562 93.785156 L 297.914062 93.785156 L 297.914062 93.953125 L 297.976562 93.953125 L 297.914062 93.941406 C 297.777344 94.777344 297.40625 95.761719 296.578125 96.769531 C 295.75 97.777344 294.464844 98.804688 292.496094 99.714844 L 292.496094 93.847656 L 297.976562 93.847656 L 297.976562 93.785156 L 297.914062 93.785156 L 297.976562 93.785156 L 297.976562 93.726562 L 292.433594 93.726562 C 292.417969 93.726562 292.402344 93.730469 292.390625 93.742188 C 292.378906 93.753906 292.375 93.769531 292.375 93.785156 L 292.375 99.808594 C 292.375 99.832031 292.382812 99.851562 292.402344 99.863281 C 292.417969 99.871094 292.441406 99.875 292.460938 99.863281 L 292.550781 99.824219 C 294.53125 98.910156 295.832031 97.871094 296.671875 96.847656 C 297.515625 95.824219 297.894531 94.816406 298.039062 93.960938 L 298.039062 93.785156 C 298.039062 93.769531 298.03125 93.753906 298.019531 93.742188 C 298.007812 93.730469 297.992188 93.726562 297.976562 93.726562 L 297.976562 93.785156 " fill-opacity="1" fill-rule="nonzero"/></g><g clip-path="url(#d56077ff4b)"><path fill="#000000" d="M 292.433594 93.785156 L 292.433594 86.324219 L 292.609375 86.570312 C 292.886719 86.960938 294.429688 88.738281 297.835938 88.738281 L 298.007812 88.738281 L 298.007812 93.785156 L 292.433594 93.785156 " fill-opacity="1" fill-rule="nonzero"/><path fill="#ffffff" d="M 292.433594 93.785156 L 292.496094 93.785156 L 292.496094 86.515625 L 292.5625 86.605469 C 292.632812 86.707031 292.78125 86.894531 293.023438 87.117188 C 293.742188 87.792969 295.265625 88.800781 297.835938 88.800781 L 297.949219 88.800781 L 297.949219 93.726562 L 292.433594 93.726562 L 292.433594 93.785156 L 292.496094 93.785156 L 292.433594 93.785156 L 292.433594 93.847656 L 298.007812 93.847656 C 298.027344 93.847656 298.042969 93.839844 298.054688 93.828125 C 298.066406 93.820312 298.070312 93.800781 298.070312 93.785156 L 298.070312 88.738281 C 298.070312 88.722656 298.066406 88.707031 298.054688 88.695312 C 298.042969 88.683594 298.027344 88.675781 298.007812 88.675781 L 297.835938 88.675781 C 296.144531 88.675781 294.917969 88.234375 294.082031 87.746094 C 293.664062 87.503906 293.339844 87.246094 293.105469 87.03125 C 292.875 86.8125 292.726562 86.628906 292.660156 86.535156 L 292.484375 86.285156 C 292.46875 86.265625 292.441406 86.253906 292.417969 86.265625 C 292.390625 86.273438 292.375 86.296875 292.375 86.324219 L 292.375 93.785156 C 292.375 93.800781 292.378906 93.820312 292.390625 93.828125 C 292.402344 93.839844 292.417969 93.847656 292.433594 93.847656 L 292.433594 93.785156 " fill-opacity="1" fill-rule="nonzero"/></g><g clip-path="url(#556a9dc42f)"><path fill="#ffffff" d="M 286.945312 93.96875 C 287.21875 95.558594 288.382812 97.835938 292.375 99.648438 L 292.433594 99.675781 L 292.496094 99.648438 C 296.488281 97.835938 297.652344 95.558594 297.921875 93.96875 L 297.921875 88.792969 L 297.777344 88.792969 C 294.375 88.792969 292.828125 86.964844 292.550781 86.597656 L 292.433594 86.445312 L 292.316406 86.597656 C 292.042969 86.964844 290.496094 88.792969 287.09375 88.792969 L 286.945312 88.792969 Z M 292.433594 99.839844 L 292.308594 99.78125 C 288.25 97.9375 287.070312 95.613281 286.792969 93.984375 L 286.792969 88.644531 L 287.09375 88.644531 C 290.421875 88.644531 291.925781 86.867188 292.195312 86.511719 L 292.433594 86.191406 L 292.675781 86.511719 C 292.945312 86.867188 294.449219 88.644531 297.777344 88.644531 L 298.078125 88.644531 L 298.074219 93.984375 C 297.800781 95.613281 296.621094 97.9375 292.5625 99.78125 L 292.433594 99.839844 " fill-opacity="1" fill-rule="nonzero"/><path fill="#ffffff" d="M 286.945312 93.96875 L 286.886719 93.976562 C 287.023438 94.78125 287.386719 95.761719 288.21875 96.761719 C 289.046875 97.765625 290.34375 98.792969 292.347656 99.703125 L 292.410156 99.730469 C 292.425781 99.738281 292.445312 99.738281 292.460938 99.730469 L 292.523438 99.703125 C 294.523438 98.792969 295.820312 97.765625 296.652344 96.761719 C 297.484375 95.761719 297.847656 94.78125 297.984375 93.976562 L 297.984375 88.792969 C 297.984375 88.773438 297.980469 88.757812 297.96875 88.746094 C 297.957031 88.734375 297.941406 88.730469 297.921875 88.730469 L 297.777344 88.730469 C 296.085938 88.730469 294.863281 88.277344 294.023438 87.78125 C 293.1875 87.28125 292.734375 86.742188 292.601562 86.5625 L 292.484375 86.40625 C 292.472656 86.390625 292.453125 86.382812 292.433594 86.382812 C 292.414062 86.382812 292.398438 86.390625 292.386719 86.40625 L 292.269531 86.5625 C 292.132812 86.742188 291.683594 87.28125 290.847656 87.78125 C 290.007812 88.277344 288.78125 88.730469 287.09375 88.730469 L 286.945312 88.730469 C 286.929688 88.730469 286.914062 88.734375 286.902344 88.746094 C 286.890625 88.757812 286.886719 88.773438 286.886719 88.792969 L 286.886719 93.976562 L 286.945312 93.96875 L 287.007812 93.96875 L 287.007812 88.851562 L 287.09375 88.851562 C 288.804688 88.851562 290.054688 88.394531 290.910156 87.886719 C 291.765625 87.378906 292.226562 86.824219 292.367188 86.636719 L 292.433594 86.546875 L 292.503906 86.636719 C 292.644531 86.824219 293.105469 87.378906 293.960938 87.886719 C 294.816406 88.394531 296.066406 88.851562 297.777344 88.851562 L 297.863281 88.851562 L 297.863281 93.96875 L 297.921875 93.96875 L 297.863281 93.957031 C 297.726562 94.742188 297.375 95.699219 296.558594 96.6875 C 295.742188 97.671875 294.460938 98.6875 292.46875 99.59375 L 292.433594 99.609375 L 292.398438 99.59375 C 290.410156 98.6875 289.128906 97.671875 288.3125 96.6875 C 287.496094 95.699219 287.140625 94.742188 287.007812 93.957031 L 286.945312 93.96875 L 287.007812 93.96875 Z M 292.433594 99.839844 L 292.460938 99.785156 L 292.335938 99.726562 C 290.3125 98.808594 289.011719 97.769531 288.179688 96.761719 C 287.351562 95.757812 286.992188 94.777344 286.855469 93.976562 L 286.792969 93.984375 L 286.855469 93.980469 L 286.855469 88.703125 L 287.09375 88.703125 C 288.769531 88.703125 289.988281 88.257812 290.820312 87.765625 C 291.65625 87.269531 292.105469 86.730469 292.242188 86.550781 L 292.433594 86.296875 L 292.628906 86.550781 C 292.765625 86.730469 293.214844 87.269531 294.046875 87.765625 C 294.882812 88.257812 296.101562 88.703125 297.777344 88.703125 L 298.015625 88.703125 L 298.015625 93.984375 L 298.074219 93.984375 L 298.015625 93.976562 C 297.878906 94.777344 297.519531 95.757812 296.6875 96.761719 C 295.859375 97.769531 294.558594 98.808594 292.535156 99.726562 L 292.410156 99.785156 L 292.433594 99.839844 L 292.460938 99.785156 L 292.433594 99.839844 L 292.460938 99.894531 L 292.585938 99.835938 C 294.621094 98.914062 295.941406 97.863281 296.785156 96.839844 C 297.628906 95.816406 297.996094 94.816406 298.136719 93.996094 L 298.136719 88.644531 C 298.136719 88.628906 298.132812 88.613281 298.121094 88.601562 C 298.109375 88.589844 298.09375 88.582031 298.078125 88.582031 L 297.777344 88.582031 C 296.125 88.582031 294.929688 88.140625 294.113281 87.660156 C 293.292969 87.175781 292.855469 86.648438 292.726562 86.476562 L 292.484375 86.15625 C 292.472656 86.140625 292.453125 86.132812 292.433594 86.132812 C 292.414062 86.132812 292.398438 86.140625 292.386719 86.15625 L 292.144531 86.476562 C 292.015625 86.648438 291.574219 87.175781 290.757812 87.660156 C 289.941406 88.140625 288.746094 88.582031 287.09375 88.582031 L 286.792969 88.582031 C 286.777344 88.582031 286.761719 88.589844 286.75 88.601562 C 286.738281 88.613281 286.730469 88.628906 286.730469 88.644531 L 286.730469 93.980469 L 286.734375 93.992188 L 286.734375 93.996094 C 286.871094 94.816406 287.242188 95.816406 288.085938 96.839844 C 288.929688 97.863281 290.246094 98.914062 292.28125 99.835938 L 292.410156 99.894531 C 292.425781 99.902344 292.445312 99.902344 292.460938 99.894531 L 292.433594 99.839844 " fill-opacity="1" fill-rule="nonzero"/></g><g fill="#ffffff" fill-opacity="1"><g transform="translate(69.51316, 317.904913)"><g><path d="M 0.703125 -15.4375 L 1.046875 -15.4375 C 1.085938 -15.226562 1.171875 -15.085938 1.296875 -15.015625 C 1.429688 -14.953125 1.679688 -14.921875 2.046875 -14.921875 L 10.53125 -14.921875 C 10.832031 -14.921875 11.066406 -14.945312 11.234375 -15 C 11.398438 -15.0625 11.503906 -15.207031 11.546875 -15.4375 L 11.890625 -15.4375 L 11.890625 -12.625 L 11.546875 -12.625 C 11.503906 -12.832031 11.398438 -12.972656 11.234375 -13.046875 C 11.066406 -13.128906 10.847656 -13.171875 10.578125 -13.171875 L 7.34375 -13.171875 L 7.34375 -1.359375 C 7.34375 -0.960938 7.398438 -0.703125 7.515625 -0.578125 C 7.628906 -0.453125 7.867188 -0.375 8.234375 -0.34375 L 8.234375 0 L 4.375 0 L 4.375 -0.34375 C 4.726562 -0.375 4.960938 -0.453125 5.078125 -0.578125 C 5.191406 -0.703125 5.25 -0.960938 5.25 -1.359375 L 5.25 -13.171875 L 2.015625 -13.171875 C 1.753906 -13.171875 1.535156 -13.128906 1.359375 -13.046875 C 1.191406 -12.972656 1.085938 -12.832031 1.046875 -12.625 L 0.703125 -12.625 Z M 0.703125 -15.4375 "/></g></g></g><g fill="#ffffff" fill-opacity="1"><g transform="translate(85.765909, 317.904913)"><g><path d="M 8.515625 -8 C 9.421875 -8 10.125 -8.21875 10.625 -8.65625 C 11.125 -9.09375 11.375 -9.734375 11.375 -10.578125 C 11.375 -12.304688 10.316406 -13.171875 8.203125 -13.171875 L 4.875 -13.171875 L 4.875 -8 Z M 8.109375 -14.921875 C 9.773438 -14.921875 11.085938 -14.53125 12.046875 -13.75 C 13.003906 -12.976562 13.484375 -11.875 13.484375 -10.4375 C 13.484375 -9.96875 13.410156 -9.515625 13.265625 -9.078125 C 13.117188 -8.640625 12.910156 -8.242188 12.640625 -7.890625 C 12.367188 -7.546875 12.03125 -7.257812 11.625 -7.03125 C 11.226562 -6.8125 10.785156 -6.671875 10.296875 -6.609375 L 13.3125 -1.109375 C 13.53125 -0.671875 13.800781 -0.414062 14.125 -0.34375 L 14.125 0 L 10.78125 0 L 10.78125 -0.34375 C 11.101562 -0.394531 11.265625 -0.507812 11.265625 -0.6875 C 11.265625 -0.8125 11.203125 -0.96875 11.078125 -1.15625 C 10.953125 -1.351562 10.816406 -1.59375 10.671875 -1.875 L 8.234375 -6.40625 L 4.875 -6.40625 L 4.875 -1.359375 C 4.875 -1.003906 4.921875 -0.753906 5.015625 -0.609375 C 5.117188 -0.460938 5.328125 -0.375 5.640625 -0.34375 L 5.640625 0 L 1.953125 0 L 1.953125 -0.34375 C 2.273438 -0.375 2.492188 -0.453125 2.609375 -0.578125 C 2.722656 -0.703125 2.78125 -0.960938 2.78125 -1.359375 L 2.78125 -13.5 C 2.78125 -13.90625 2.726562 -14.175781 2.625 -14.3125 C 2.519531 -14.457031 2.28125 -14.546875 1.90625 -14.578125 L 1.90625 -14.921875 Z M 8.109375 -14.921875 "/></g></g></g><g fill="#ffffff" fill-opacity="1"><g transform="translate(105.194966, 317.904913)"><g><path d="M 5.21875 -14.921875 L 5.21875 -14.578125 C 4.976562 -14.546875 4.828125 -14.445312 4.765625 -14.28125 C 4.710938 -14.125 4.6875 -13.882812 4.6875 -13.5625 L 4.6875 -5.1875 C 4.6875 -4.644531 4.726562 -4.15625 4.8125 -3.71875 C 4.894531 -3.28125 5.050781 -2.898438 5.28125 -2.578125 C 5.519531 -2.253906 5.847656 -2.007812 6.265625 -1.84375 C 6.679688 -1.675781 7.222656 -1.59375 7.890625 -1.59375 C 9.003906 -1.59375 9.816406 -1.851562 10.328125 -2.375 C 10.835938 -2.894531 11.09375 -3.796875 11.09375 -5.078125 L 11.09375 -13.484375 C 11.09375 -13.859375 11.0625 -14.125 11 -14.28125 C 10.945312 -14.445312 10.800781 -14.546875 10.5625 -14.578125 L 10.5625 -14.921875 L 13.796875 -14.921875 L 13.796875 -14.578125 C 13.523438 -14.546875 13.351562 -14.445312 13.28125 -14.28125 C 13.21875 -14.125 13.1875 -13.859375 13.1875 -13.484375 L 13.1875 -3.96875 C 13.1875 -3.425781 13.070312 -2.898438 12.84375 -2.390625 C 12.625 -1.890625 12.296875 -1.453125 11.859375 -1.078125 C 11.421875 -0.703125 10.863281 -0.398438 10.1875 -0.171875 C 9.519531 0.0546875 8.753906 0.171875 7.890625 0.171875 C 6.992188 0.171875 6.210938 0.0546875 5.546875 -0.171875 C 4.890625 -0.398438 4.34375 -0.703125 3.90625 -1.078125 C 3.476562 -1.453125 3.148438 -1.890625 2.921875 -2.390625 C 2.691406 -2.898438 2.578125 -3.425781 2.578125 -3.96875 L 2.578125 -13.5625 C 2.578125 -13.882812 2.546875 -14.125 2.484375 -14.28125 C 2.421875 -14.445312 2.253906 -14.546875 1.984375 -14.578125 L 1.984375 -14.921875 Z M 5.21875 -14.921875 "/></g></g></g><g fill="#ffffff" fill-opacity="1"><g transform="translate(124.624021, 317.904913)"><g><path d="M 7.09375 -15.09375 C 7.789062 -15.09375 8.394531 -15.035156 8.90625 -14.921875 C 9.414062 -14.804688 9.847656 -14.679688 10.203125 -14.546875 C 10.566406 -14.421875 10.863281 -14.300781 11.09375 -14.1875 C 11.320312 -14.070312 11.507812 -14.015625 11.65625 -14.015625 C 11.75 -14.015625 11.820312 -14.03125 11.875 -14.0625 C 11.925781 -14.09375 11.96875 -14.125 12 -14.15625 L 12.265625 -13.984375 L 10.8125 -11.328125 L 10.53125 -11.46875 C 10.53125 -12.070312 10.207031 -12.535156 9.5625 -12.859375 C 8.914062 -13.179688 8.113281 -13.34375 7.15625 -13.34375 C 6.695312 -13.34375 6.257812 -13.289062 5.84375 -13.1875 C 5.425781 -13.082031 5.0625 -12.925781 4.75 -12.71875 C 4.4375 -12.519531 4.191406 -12.269531 4.015625 -11.96875 C 3.835938 -11.664062 3.75 -11.316406 3.75 -10.921875 C 3.75 -10.390625 4.003906 -9.984375 4.515625 -9.703125 C 5.023438 -9.421875 5.757812 -9.15625 6.71875 -8.90625 C 7.519531 -8.71875 8.273438 -8.515625 8.984375 -8.296875 C 9.691406 -8.078125 10.3125 -7.796875 10.84375 -7.453125 C 11.375 -7.117188 11.789062 -6.695312 12.09375 -6.1875 C 12.40625 -5.675781 12.5625 -5.039062 12.5625 -4.28125 C 12.5625 -2.882812 12.066406 -1.789062 11.078125 -1 C 10.085938 -0.21875 8.734375 0.171875 7.015625 0.171875 C 6.304688 0.171875 5.613281 0.0820312 4.9375 -0.09375 C 4.269531 -0.28125 3.625 -0.523438 3 -0.828125 C 2.832031 -0.898438 2.707031 -0.957031 2.625 -1 C 2.539062 -1.050781 2.441406 -1.078125 2.328125 -1.078125 C 2.117188 -1.078125 1.945312 -0.984375 1.8125 -0.796875 L 1.46875 -0.90625 L 3.265625 -4.109375 L 3.546875 -4 C 3.546875 -3.207031 3.863281 -2.609375 4.5 -2.203125 C 5.144531 -1.796875 6.035156 -1.59375 7.171875 -1.59375 C 7.585938 -1.59375 8.003906 -1.644531 8.421875 -1.75 C 8.835938 -1.851562 9.21875 -2.007812 9.5625 -2.21875 C 9.90625 -2.425781 10.179688 -2.6875 10.390625 -3 C 10.597656 -3.320312 10.703125 -3.703125 10.703125 -4.140625 C 10.703125 -4.535156 10.597656 -4.875 10.390625 -5.15625 C 10.191406 -5.445312 9.914062 -5.703125 9.5625 -5.921875 C 9.21875 -6.140625 8.796875 -6.320312 8.296875 -6.46875 C 7.796875 -6.625 7.242188 -6.773438 6.640625 -6.921875 C 5.992188 -7.085938 5.378906 -7.265625 4.796875 -7.453125 C 4.222656 -7.648438 3.71875 -7.898438 3.28125 -8.203125 C 2.851562 -8.503906 2.507812 -8.867188 2.25 -9.296875 C 2 -9.734375 1.875 -10.265625 1.875 -10.890625 C 1.875 -12.210938 2.347656 -13.242188 3.296875 -13.984375 C 4.253906 -14.722656 5.519531 -15.09375 7.09375 -15.09375 Z M 7.09375 -15.09375 "/></g></g></g><g fill="#ffffff" fill-opacity="1"><g transform="translate(142.464952, 317.904913)"><g><path d="M 0.703125 -15.4375 L 1.046875 -15.4375 C 1.085938 -15.226562 1.171875 -15.085938 1.296875 -15.015625 C 1.429688 -14.953125 1.679688 -14.921875 2.046875 -14.921875 L 10.53125 -14.921875 C 10.832031 -14.921875 11.066406 -14.945312 11.234375 -15 C 11.398438 -15.0625 11.503906 -15.207031 11.546875 -15.4375 L 11.890625 -15.4375 L 11.890625 -12.625 L 11.546875 -12.625 C 11.503906 -12.832031 11.398438 -12.972656 11.234375 -13.046875 C 11.066406 -13.128906 10.847656 -13.171875 10.578125 -13.171875 L 7.34375 -13.171875 L 7.34375 -1.359375 C 7.34375 -0.960938 7.398438 -0.703125 7.515625 -0.578125 C 7.628906 -0.453125 7.867188 -0.375 8.234375 -0.34375 L 8.234375 0 L 4.375 0 L 4.375 -0.34375 C 4.726562 -0.375 4.960938 -0.453125 5.078125 -0.578125 C 5.191406 -0.703125 5.25 -0.960938 5.25 -1.359375 L 5.25 -13.171875 L 2.015625 -13.171875 C 1.753906 -13.171875 1.535156 -13.128906 1.359375 -13.046875 C 1.191406 -12.972656 1.085938 -12.832031 1.046875 -12.625 L 0.703125 -12.625 Z M 0.703125 -15.4375 "/></g></g></g><g fill="#ffffff" fill-opacity="1"><g transform="translate(158.717686, 317.904913)"><g><path d="M 12.453125 -12.453125 L 12.109375 -12.453125 C 12.078125 -12.753906 11.960938 -12.945312 11.765625 -13.03125 C 11.578125 -13.125 11.351562 -13.171875 11.09375 -13.171875 L 4.515625 -13.171875 L 4.515625 -8.5625 L 9.28125 -8.5625 C 9.519531 -8.5625 9.734375 -8.601562 9.921875 -8.6875 C 10.117188 -8.78125 10.234375 -8.957031 10.265625 -9.21875 L 10.609375 -9.21875 L 10.609375 -6.078125 L 10.265625 -6.078125 C 10.210938 -6.566406 9.882812 -6.8125 9.28125 -6.8125 L 4.515625 -6.8125 L 4.515625 -1.765625 L 11.328125 -1.765625 C 11.535156 -1.765625 11.742188 -1.800781 11.953125 -1.875 C 12.160156 -1.945312 12.28125 -2.125 12.3125 -2.40625 L 12.65625 -2.40625 L 12.65625 0.515625 L 12.3125 0.515625 C 12.28125 0.304688 12.160156 0.164062 11.953125 0.09375 C 11.753906 0.03125 11.546875 0 11.328125 0 L 1.8125 0 L 1.8125 -0.34375 C 2.0625 -0.375 2.222656 -0.460938 2.296875 -0.609375 C 2.367188 -0.765625 2.40625 -1.023438 2.40625 -1.390625 L 2.40625 -13.5 C 2.40625 -13.863281 2.375 -14.125 2.3125 -14.28125 C 2.25 -14.445312 2.082031 -14.546875 1.8125 -14.578125 L 1.8125 -14.921875 L 11.328125 -14.921875 C 11.535156 -14.921875 11.707031 -14.953125 11.84375 -15.015625 C 11.988281 -15.085938 12.078125 -15.226562 12.109375 -15.4375 L 12.453125 -15.4375 Z M 12.453125 -12.453125 "/></g></g></g><g fill="#ffffff" fill-opacity="1"><g transform="translate(176.558604, 317.904913)"><g><path d="M 6.5 -1.765625 C 7.519531 -1.765625 8.382812 -1.875 9.09375 -2.09375 C 9.800781 -2.320312 10.375 -2.664062 10.8125 -3.125 C 11.25 -3.59375 11.566406 -4.195312 11.765625 -4.9375 C 11.960938 -5.675781 12.0625 -6.554688 12.0625 -7.578125 C 12.0625 -8.710938 11.945312 -9.644531 11.71875 -10.375 C 11.488281 -11.101562 11.148438 -11.671875 10.703125 -12.078125 C 10.265625 -12.484375 9.722656 -12.765625 9.078125 -12.921875 C 8.429688 -13.085938 7.691406 -13.171875 6.859375 -13.171875 L 4.625 -13.171875 L 4.625 -1.765625 Z M 7.09375 -14.921875 C 8.15625 -14.921875 9.117188 -14.78125 9.984375 -14.5 C 10.859375 -14.21875 11.601562 -13.773438 12.21875 -13.171875 C 12.832031 -12.578125 13.304688 -11.828125 13.640625 -10.921875 C 13.984375 -10.015625 14.15625 -8.9375 14.15625 -7.6875 C 14.15625 -6.15625 13.96875 -4.890625 13.59375 -3.890625 C 13.21875 -2.898438 12.671875 -2.117188 11.953125 -1.546875 C 11.242188 -0.972656 10.378906 -0.570312 9.359375 -0.34375 C 8.335938 -0.113281 7.195312 0 5.9375 0 L 1.984375 0 L 1.984375 -0.34375 C 2.191406 -0.375 2.332031 -0.460938 2.40625 -0.609375 C 2.488281 -0.765625 2.53125 -1.015625 2.53125 -1.359375 L 2.53125 -13.53125 C 2.53125 -13.851562 2.492188 -14.097656 2.421875 -14.265625 C 2.359375 -14.441406 2.210938 -14.546875 1.984375 -14.578125 L 1.984375 -14.921875 Z M 7.09375 -14.921875 "/></g></g></g><g fill="#ffffff" fill-opacity="1"><g transform="translate(195.987658, 317.904913)"><g/></g></g><g fill="#ffffff" fill-opacity="1"><g transform="translate(206.73857, 317.904913)"><g><path d="M 4 -14.921875 L 4 -14.578125 C 3.863281 -14.484375 3.742188 -14.398438 3.640625 -14.328125 C 3.535156 -14.253906 3.484375 -14.128906 3.484375 -13.953125 C 3.484375 -13.785156 3.503906 -13.601562 3.546875 -13.40625 C 3.597656 -13.207031 3.644531 -13.050781 3.6875 -12.9375 L 5.953125 -3.796875 L 6.015625 -3.796875 L 8.59375 -12.96875 C 8.632812 -13.113281 8.679688 -13.28125 8.734375 -13.46875 C 8.796875 -13.664062 8.828125 -13.847656 8.828125 -14.015625 C 8.828125 -14.109375 8.78125 -14.191406 8.6875 -14.265625 C 8.601562 -14.347656 8.441406 -14.453125 8.203125 -14.578125 L 8.203125 -14.921875 L 11.640625 -14.921875 L 11.640625 -14.578125 C 11.253906 -14.429688 11.0625 -14.273438 11.0625 -14.109375 C 11.0625 -14.023438 11.082031 -13.90625 11.125 -13.75 C 11.164062 -13.601562 11.210938 -13.414062 11.265625 -13.1875 L 13.765625 -3.796875 L 13.8125 -3.796875 L 16.03125 -12.828125 C 16.164062 -13.359375 16.242188 -13.679688 16.265625 -13.796875 C 16.296875 -13.921875 16.3125 -14.015625 16.3125 -14.078125 C 16.3125 -14.285156 16.171875 -14.453125 15.890625 -14.578125 L 15.890625 -14.921875 L 18.5625 -14.921875 L 18.5625 -14.5 C 18.332031 -14.425781 18.175781 -14.234375 18.09375 -13.921875 C 18.007812 -13.609375 17.914062 -13.289062 17.8125 -12.96875 L 15.234375 -2.78125 C 15.085938 -2.175781 14.976562 -1.75 14.90625 -1.5 C 14.84375 -1.257812 14.8125 -1.070312 14.8125 -0.9375 C 14.8125 -0.726562 14.953125 -0.53125 15.234375 -0.34375 L 15.234375 0 L 12.09375 0 L 12.09375 -0.34375 C 12.394531 -0.4375 12.546875 -0.601562 12.546875 -0.84375 C 12.546875 -1 12.507812 -1.210938 12.4375 -1.484375 C 12.375 -1.765625 12.316406 -2.007812 12.265625 -2.21875 L 9.84375 -11.234375 L 9.796875 -11.234375 L 7.265625 -2.09375 C 7.203125 -1.90625 7.144531 -1.691406 7.09375 -1.453125 C 7.039062 -1.222656 7.015625 -1.050781 7.015625 -0.9375 C 7.015625 -0.675781 7.222656 -0.476562 7.640625 -0.34375 L 7.640625 0 L 4.140625 0 L 4.140625 -0.34375 C 4.296875 -0.457031 4.410156 -0.550781 4.484375 -0.625 C 4.554688 -0.695312 4.59375 -0.789062 4.59375 -0.90625 C 4.59375 -1.15625 4.507812 -1.617188 4.34375 -2.296875 L 1.5 -13.640625 C 1.445312 -13.910156 1.382812 -14.101562 1.3125 -14.21875 C 1.25 -14.332031 1.09375 -14.425781 0.84375 -14.5 L 0.84375 -14.921875 Z M 4 -14.921875 "/></g></g></g><g fill="#ffffff" fill-opacity="1"><g transform="translate(229.315592, 317.904913)"><g><path d="M 12.453125 -12.453125 L 12.109375 -12.453125 C 12.078125 -12.753906 11.960938 -12.945312 11.765625 -13.03125 C 11.578125 -13.125 11.351562 -13.171875 11.09375 -13.171875 L 4.515625 -13.171875 L 4.515625 -8.5625 L 9.28125 -8.5625 C 9.519531 -8.5625 9.734375 -8.601562 9.921875 -8.6875 C 10.117188 -8.78125 10.234375 -8.957031 10.265625 -9.21875 L 10.609375 -9.21875 L 10.609375 -6.078125 L 10.265625 -6.078125 C 10.210938 -6.566406 9.882812 -6.8125 9.28125 -6.8125 L 4.515625 -6.8125 L 4.515625 -1.765625 L 11.328125 -1.765625 C 11.535156 -1.765625 11.742188 -1.800781 11.953125 -1.875 C 12.160156 -1.945312 12.28125 -2.125 12.3125 -2.40625 L 12.65625 -2.40625 L 12.65625 0.515625 L 12.3125 0.515625 C 12.28125 0.304688 12.160156 0.164062 11.953125 0.09375 C 11.753906 0.03125 11.546875 0 11.328125 0 L 1.8125 0 L 1.8125 -0.34375 C 2.0625 -0.375 2.222656 -0.460938 2.296875 -0.609375 C 2.367188 -0.765625 2.40625 -1.023438 2.40625 -1.390625 L 2.40625 -13.5 C 2.40625 -13.863281 2.375 -14.125 2.3125 -14.28125 C 2.25 -14.445312 2.082031 -14.546875 1.8125 -14.578125 L 1.8125 -14.921875 L 11.328125 -14.921875 C 11.535156 -14.921875 11.707031 -14.953125 11.84375 -15.015625 C 11.988281 -15.085938 12.078125 -15.226562 12.109375 -15.4375 L 12.453125 -15.4375 Z M 12.453125 -12.453125 "/></g></g></g><g fill="#ffffff" fill-opacity="1"><g transform="translate(247.156509, 317.904913)"><g><path d="M 6.78125 -13.03125 L 4.6875 -6.046875 L 9.078125 -6.046875 L 6.84375 -13.03125 Z M 8.875 -14.921875 L 8.875 -14.578125 C 8.65625 -14.523438 8.546875 -14.347656 8.546875 -14.046875 C 8.546875 -13.878906 8.582031 -13.679688 8.65625 -13.453125 C 8.726562 -13.222656 8.796875 -13.023438 8.859375 -12.859375 L 12.859375 -1.1875 C 12.953125 -0.90625 13.03125 -0.707031 13.09375 -0.59375 C 13.15625 -0.476562 13.265625 -0.394531 13.421875 -0.34375 L 13.421875 0 L 10.4375 0 L 10.4375 -0.34375 C 10.707031 -0.4375 10.84375 -0.597656 10.84375 -0.828125 C 10.84375 -1.015625 10.660156 -1.597656 10.296875 -2.578125 C 10.128906 -3.066406 10 -3.445312 9.90625 -3.71875 C 9.8125 -4 9.742188 -4.207031 9.703125 -4.34375 L 4.109375 -4.34375 C 4.015625 -4.019531 3.910156 -3.6875 3.796875 -3.34375 C 3.679688 -3.007812 3.5625 -2.648438 3.4375 -2.265625 C 3.1875 -1.523438 3.0625 -1.082031 3.0625 -0.9375 C 3.0625 -0.820312 3.09375 -0.6875 3.15625 -0.53125 C 3.226562 -0.382812 3.335938 -0.289062 3.484375 -0.25 L 3.484375 0 L 0.765625 0 L 0.765625 -0.234375 C 0.859375 -0.328125 0.929688 -0.398438 0.984375 -0.453125 C 1.046875 -0.515625 1.113281 -0.65625 1.1875 -0.875 L 5 -12.6875 C 5.09375 -13.007812 5.175781 -13.269531 5.25 -13.46875 C 5.320312 -13.664062 5.359375 -13.859375 5.359375 -14.046875 C 5.359375 -14.367188 5.21875 -14.546875 4.9375 -14.578125 L 4.9375 -14.921875 Z M 8.875 -14.921875 "/></g></g></g><g fill="#ffffff" fill-opacity="1"><g transform="translate(264.997424, 317.904913)"><g><path d="M 8.515625 -8 C 9.421875 -8 10.125 -8.21875 10.625 -8.65625 C 11.125 -9.09375 11.375 -9.734375 11.375 -10.578125 C 11.375 -12.304688 10.316406 -13.171875 8.203125 -13.171875 L 4.875 -13.171875 L 4.875 -8 Z M 8.109375 -14.921875 C 9.773438 -14.921875 11.085938 -14.53125 12.046875 -13.75 C 13.003906 -12.976562 13.484375 -11.875 13.484375 -10.4375 C 13.484375 -9.96875 13.410156 -9.515625 13.265625 -9.078125 C 13.117188 -8.640625 12.910156 -8.242188 12.640625 -7.890625 C 12.367188 -7.546875 12.03125 -7.257812 11.625 -7.03125 C 11.226562 -6.8125 10.785156 -6.671875 10.296875 -6.609375 L 13.3125 -1.109375 C 13.53125 -0.671875 13.800781 -0.414062 14.125 -0.34375 L 14.125 0 L 10.78125 0 L 10.78125 -0.34375 C 11.101562 -0.394531 11.265625 -0.507812 11.265625 -0.6875 C 11.265625 -0.8125 11.203125 -0.96875 11.078125 -1.15625 C 10.953125 -1.351562 10.816406 -1.59375 10.671875 -1.875 L 8.234375 -6.40625 L 4.875 -6.40625 L 4.875 -1.359375 C 4.875 -1.003906 4.921875 -0.753906 5.015625 -0.609375 C 5.117188 -0.460938 5.328125 -0.375 5.640625 -0.34375 L 5.640625 0 L 1.953125 0 L 1.953125 -0.34375 C 2.273438 -0.375 2.492188 -0.453125 2.609375 -0.578125 C 2.722656 -0.703125 2.78125 -0.960938 2.78125 -1.359375 L 2.78125 -13.5 C 2.78125 -13.90625 2.726562 -14.175781 2.625 -14.3125 C 2.519531 -14.457031 2.28125 -14.546875 1.90625 -14.578125 L 1.90625 -14.921875 Z M 8.109375 -14.921875 "/></g></g></g><g fill="#ffffff" fill-opacity="1"><g transform="translate(284.426467, 317.904913)"><g><path d="M 6.78125 -13.03125 L 4.6875 -6.046875 L 9.078125 -6.046875 L 6.84375 -13.03125 Z M 8.875 -14.921875 L 8.875 -14.578125 C 8.65625 -14.523438 8.546875 -14.347656 8.546875 -14.046875 C 8.546875 -13.878906 8.582031 -13.679688 8.65625 -13.453125 C 8.726562 -13.222656 8.796875 -13.023438 8.859375 -12.859375 L 12.859375 -1.1875 C 12.953125 -0.90625 13.03125 -0.707031 13.09375 -0.59375 C 13.15625 -0.476562 13.265625 -0.394531 13.421875 -0.34375 L 13.421875 0 L 10.4375 0 L 10.4375 -0.34375 C 10.707031 -0.4375 10.84375 -0.597656 10.84375 -0.828125 C 10.84375 -1.015625 10.660156 -1.597656 10.296875 -2.578125 C 10.128906 -3.066406 10 -3.445312 9.90625 -3.71875 C 9.8125 -4 9.742188 -4.207031 9.703125 -4.34375 L 4.109375 -4.34375 C 4.015625 -4.019531 3.910156 -3.6875 3.796875 -3.34375 C 3.679688 -3.007812 3.5625 -2.648438 3.4375 -2.265625 C 3.1875 -1.523438 3.0625 -1.082031 3.0625 -0.9375 C 3.0625 -0.820312 3.09375 -0.6875 3.15625 -0.53125 C 3.226562 -0.382812 3.335938 -0.289062 3.484375 -0.25 L 3.484375 0 L 0.765625 0 L 0.765625 -0.234375 C 0.859375 -0.328125 0.929688 -0.398438 0.984375 -0.453125 C 1.046875 -0.515625 1.113281 -0.65625 1.1875 -0.875 L 5 -12.6875 C 5.09375 -13.007812 5.175781 -13.269531 5.25 -13.46875 C 5.320312 -13.664062 5.359375 -13.859375 5.359375 -14.046875 C 5.359375 -14.367188 5.21875 -14.546875 4.9375 -14.578125 L 4.9375 -14.921875 Z M 8.875 -14.921875 "/></g></g></g><g fill="#ffffff" fill-opacity="1"><g transform="translate(302.267384, 317.904913)"><g><path d="M 7.375 -1.765625 C 8.695312 -1.765625 9.664062 -1.957031 10.28125 -2.34375 C 10.894531 -2.726562 11.203125 -3.441406 11.203125 -4.484375 C 11.203125 -4.953125 11.078125 -5.332031 10.828125 -5.625 C 10.585938 -5.925781 10.273438 -6.160156 9.890625 -6.328125 C 9.503906 -6.492188 9.082031 -6.601562 8.625 -6.65625 C 8.164062 -6.71875 7.734375 -6.75 7.328125 -6.75 L 4.875 -6.75 L 4.875 -1.765625 Z M 7.515625 -8.515625 C 8.671875 -8.515625 9.519531 -8.703125 10.0625 -9.078125 C 10.613281 -9.453125 10.890625 -10.066406 10.890625 -10.921875 C 10.890625 -11.703125 10.632812 -12.269531 10.125 -12.625 C 9.613281 -12.988281 8.90625 -13.171875 8 -13.171875 L 4.875 -13.171875 L 4.875 -8.515625 Z M 7.40625 -14.921875 C 11.132812 -14.921875 13 -13.609375 13 -10.984375 C 13 -10.128906 12.789062 -9.429688 12.375 -8.890625 C 11.957031 -8.359375 11.351562 -7.929688 10.5625 -7.609375 L 10.5625 -7.546875 C 11.382812 -7.316406 12.046875 -6.910156 12.546875 -6.328125 C 13.054688 -5.753906 13.3125 -5.035156 13.3125 -4.171875 C 13.3125 -3.390625 13.160156 -2.734375 12.859375 -2.203125 C 12.566406 -1.679688 12.171875 -1.257812 11.671875 -0.9375 C 11.171875 -0.613281 10.601562 -0.375 9.96875 -0.21875 C 9.332031 -0.0703125 8.675781 0 8 0 L 2.234375 0 L 2.234375 -0.34375 C 2.441406 -0.375 2.582031 -0.460938 2.65625 -0.609375 C 2.738281 -0.753906 2.78125 -0.992188 2.78125 -1.328125 L 2.78125 -13.5625 C 2.78125 -13.9375 2.738281 -14.191406 2.65625 -14.328125 C 2.570312 -14.460938 2.414062 -14.546875 2.1875 -14.578125 L 2.1875 -14.921875 Z M 7.40625 -14.921875 "/></g></g></g><g fill="#ffffff" fill-opacity="1"><g transform="translate(321.696456, 317.904913)"><g><path d="M 5.109375 -14.921875 L 5.109375 -14.578125 C 4.835938 -14.546875 4.671875 -14.441406 4.609375 -14.265625 C 4.546875 -14.097656 4.515625 -13.851562 4.515625 -13.53125 L 4.515625 -1.765625 L 10.8125 -1.765625 C 11.457031 -1.765625 11.804688 -1.960938 11.859375 -2.359375 L 12.203125 -2.359375 L 12.203125 0.515625 L 11.859375 0.515625 C 11.816406 0.304688 11.695312 0.164062 11.5 0.09375 C 11.300781 0.03125 11.09375 0 10.875 0 L 1.8125 0 L 1.8125 -0.34375 C 2.0625 -0.375 2.222656 -0.460938 2.296875 -0.609375 C 2.367188 -0.765625 2.40625 -1.023438 2.40625 -1.390625 L 2.40625 -13.53125 C 2.40625 -13.851562 2.375 -14.097656 2.3125 -14.265625 C 2.25 -14.441406 2.082031 -14.546875 1.8125 -14.578125 L 1.8125 -14.921875 Z M 5.109375 -14.921875 "/></g></g></g><g fill="#ffffff" fill-opacity="1"><g transform="translate(337.949187, 317.904913)"><g><path d="M 12.453125 -12.453125 L 12.109375 -12.453125 C 12.078125 -12.753906 11.960938 -12.945312 11.765625 -13.03125 C 11.578125 -13.125 11.351562 -13.171875 11.09375 -13.171875 L 4.515625 -13.171875 L 4.515625 -8.5625 L 9.28125 -8.5625 C 9.519531 -8.5625 9.734375 -8.601562 9.921875 -8.6875 C 10.117188 -8.78125 10.234375 -8.957031 10.265625 -9.21875 L 10.609375 -9.21875 L 10.609375 -6.078125 L 10.265625 -6.078125 C 10.210938 -6.566406 9.882812 -6.8125 9.28125 -6.8125 L 4.515625 -6.8125 L 4.515625 -1.765625 L 11.328125 -1.765625 C 11.535156 -1.765625 11.742188 -1.800781 11.953125 -1.875 C 12.160156 -1.945312 12.28125 -2.125 12.3125 -2.40625 L 12.65625 -2.40625 L 12.65625 0.515625 L 12.3125 0.515625 C 12.28125 0.304688 12.160156 0.164062 11.953125 0.09375 C 11.753906 0.03125 11.546875 0 11.328125 0 L 1.8125 0 L 1.8125 -0.34375 C 2.0625 -0.375 2.222656 -0.460938 2.296875 -0.609375 C 2.367188 -0.765625 2.40625 -1.023438 2.40625 -1.390625 L 2.40625 -13.5 C 2.40625 -13.863281 2.375 -14.125 2.3125 -14.28125 C 2.25 -14.445312 2.082031 -14.546875 1.8125 -14.578125 L 1.8125 -14.921875 L 11.328125 -14.921875 C 11.535156 -14.921875 11.707031 -14.953125 11.84375 -15.015625 C 11.988281 -15.085938 12.078125 -15.226562 12.109375 -15.4375 L 12.453125 -15.4375 Z M 12.453125 -12.453125 "/></g></g></g><g fill="#ffffff" fill-opacity="1"><g transform="translate(355.790105, 317.904913)"><g><path d="M 7.09375 -15.09375 C 7.789062 -15.09375 8.394531 -15.035156 8.90625 -14.921875 C 9.414062 -14.804688 9.847656 -14.679688 10.203125 -14.546875 C 10.566406 -14.421875 10.863281 -14.300781 11.09375 -14.1875 C 11.320312 -14.070312 11.507812 -14.015625 11.65625 -14.015625 C 11.75 -14.015625 11.820312 -14.03125 11.875 -14.0625 C 11.925781 -14.09375 11.96875 -14.125 12 -14.15625 L 12.265625 -13.984375 L 10.8125 -11.328125 L 10.53125 -11.46875 C 10.53125 -12.070312 10.207031 -12.535156 9.5625 -12.859375 C 8.914062 -13.179688 8.113281 -13.34375 7.15625 -13.34375 C 6.695312 -13.34375 6.257812 -13.289062 5.84375 -13.1875 C 5.425781 -13.082031 5.0625 -12.925781 4.75 -12.71875 C 4.4375 -12.519531 4.191406 -12.269531 4.015625 -11.96875 C 3.835938 -11.664062 3.75 -11.316406 3.75 -10.921875 C 3.75 -10.390625 4.003906 -9.984375 4.515625 -9.703125 C 5.023438 -9.421875 5.757812 -9.15625 6.71875 -8.90625 C 7.519531 -8.71875 8.273438 -8.515625 8.984375 -8.296875 C 9.691406 -8.078125 10.3125 -7.796875 10.84375 -7.453125 C 11.375 -7.117188 11.789062 -6.695312 12.09375 -6.1875 C 12.40625 -5.675781 12.5625 -5.039062 12.5625 -4.28125 C 12.5625 -2.882812 12.066406 -1.789062 11.078125 -1 C 10.085938 -0.21875 8.734375 0.171875 7.015625 0.171875 C 6.304688 0.171875 5.613281 0.0820312 4.9375 -0.09375 C 4.269531 -0.28125 3.625 -0.523438 3 -0.828125 C 2.832031 -0.898438 2.707031 -0.957031 2.625 -1 C 2.539062 -1.050781 2.441406 -1.078125 2.328125 -1.078125 C 2.117188 -1.078125 1.945312 -0.984375 1.8125 -0.796875 L 1.46875 -0.90625 L 3.265625 -4.109375 L 3.546875 -4 C 3.546875 -3.207031 3.863281 -2.609375 4.5 -2.203125 C 5.144531 -1.796875 6.035156 -1.59375 7.171875 -1.59375 C 7.585938 -1.59375 8.003906 -1.644531 8.421875 -1.75 C 8.835938 -1.851562 9.21875 -2.007812 9.5625 -2.21875 C 9.90625 -2.425781 10.179688 -2.6875 10.390625 -3 C 10.597656 -3.320312 10.703125 -3.703125 10.703125 -4.140625 C 10.703125 -4.535156 10.597656 -4.875 10.390625 -5.15625 C 10.191406 -5.445312 9.914062 -5.703125 9.5625 -5.921875 C 9.21875 -6.140625 8.796875 -6.320312 8.296875 -6.46875 C 7.796875 -6.625 7.242188 -6.773438 6.640625 -6.921875 C 5.992188 -7.085938 5.378906 -7.265625 4.796875 -7.453125 C 4.222656 -7.648438 3.71875 -7.898438 3.28125 -8.203125 C 2.851562 -8.503906 2.507812 -8.867188 2.25 -9.296875 C 2 -9.734375 1.875 -10.265625 1.875 -10.890625 C 1.875 -12.210938 2.347656 -13.242188 3.296875 -13.984375 C 4.253906 -14.722656 5.519531 -15.09375 7.09375 -15.09375 Z M 7.09375 -15.09375 "/></g></g></g><g fill="#ffffff" fill-opacity="1"><g transform="translate(41.535072, 49.096797)"><g><path d="M 0.128906 5.808594 L 0.40625 18.25 L 117.546875 15.648438 L 117.269531 3.203125 Z M 0.128906 5.808594 "/></g></g></g></svg>